<svg xmlns="http://www.w3.org/2000/svg" version="1.0" viewBox="0 0 1000 1000"><g fill="#3CC" stroke-width="0"><path d="M0 500v500h1000V0H508v53c0 51 .1 53.2 2 57 2.4 4.7 7.1 8.4 12.5 9.9 2.7.7 30.2 1.1 87.4 1.1 59 0 84.5.3 87.1 1.1 5.4 1.6 13 7.7 16.2 12.9 3.9 6.3 4.8 12.5 3.9 26-.7 9.4-1.3 12.4-3.4 16.6-3 5.9-8.2 10.8-14.6 13.8l-4.6 2.1-205.5.5c-193.2.5-205.7.6-208.7 2.2-4.7 2.6-8.7 8.2-7.9 11.2.9 3.6 5 8.1 9.3 10.2 3.6 1.8 8.7 1.9 104.3 2.4 94.5.5 100.7.6 104.1 2.3 6.2 3.1 11.6 8.5 14.6 14.5l2.8 5.7.3 61.7.3 61.8h4.9c4.9 0 5 .1 5 3 0 2.5.4 3 2.5 3 2.2 0 2.5.4 2.5 3.5 0 3.5 0 3.5 4.5 3.5h4.5v9h66v-2.5c0-1.4.8-2.9 2.1-3.6 1.5-.8 17.1-1 55.2-.6 58.8.4 61.4.7 81.7 7.3 13.3 4.3 15.4 5.6 14.7 9.8-.5 3-.2 3.3 7.1 7.5 11.6 6.6 20.9 14 31.3 24.9 19 19.8 30.8 42.9 35.3 69.2 1.8 10.5 3.6 35.3 3.6 48.8 0 19.2-4.8 38.9-13.9 57.7-6.8 14-13.5 23.7-23.4 34.2-53.1 55.9-141.8 57.2-196.1 2.9-7.9-7.9-16.5-18.8-21.1-26.8l-2.7-4.8h-69.9c-42.7 0-69.9.4-69.9.9s-2.7 5-6 10c-14.9 22.2-37.4 40.5-62.3 50.7-65.3 26.6-141.1-1.6-172.9-64.3-15.3-30.1-18.5-57.1-12.2-105.2 3.7-28.4 16.9-54.7 37.9-75.6 9.9-9.9 23.1-19.7 33.3-24.9 4.6-2.4 5.1-2.9 4.2-4.6-1.8-3.4.4-5.4 9.7-8.8 11.8-4.3 23.5-6.9 36.8-8.2 14.7-1.3 101-1.3 103.6 0 1.1.6 1.9 2.1 1.9 3.5v2.5h67v-9h4c3.9 0 4-.1 4-3.5 0-3.2.2-3.5 3-3.5 2.7 0 3-.3 3-3 0-2.9.1-3 5-3h5V257.5l-2.3-4c-1.2-2.1-4.2-5.3-6.5-7l-4.4-3-101.1-.5-101.2-.5-5.1-2.7c-6-3.2-10.9-8.4-13.7-14.7-1.8-3.9-2.1-6.8-2.1-19.1-.1-13.2.1-14.9 2.2-18.7 3.5-6.6 7.9-11 14-14l5.7-2.8L488 170c220.4-.5 207.1-.2 212.8-5.4 1.3-1.1 3-3.4 3.9-4.9 1.3-2.5 1.2-3.1-.4-6-1.1-1.7-3.8-4.5-6.2-6.2l-4.3-3-87.6-.5-87.7-.5-5.1-2.7c-5.9-3.1-10.8-8.4-13.8-14.7-2.1-4.5-2.1-6-2.4-65.4L496.9 0H0v500z"/><path d="M513 128.4c0 .3 1.5 1.5 3.3 2.8l3.2 2.3 87 .5c78.8.5 87.4.7 91.3 2.2 2.3.9 4.2 1.5 4.2 1.3 0-.2-2.1-1.7-4.7-3.2l-4.8-2.8-87.5-.5c-68.7-.4-88-.8-89.7-1.8-1.3-.7-2.3-1.1-2.3-.8zm185.5 50.4c-2.8 1.6-17 1.7-209.1 2.2l-206 .5-3.7 2.5c-2 1.3-3.5 2.6-3.3 2.7.2.2 2.2-.4 4.6-1.2 3.7-1.3 28.8-1.5 207.4-1.5 194.2 0 203.3-.1 207.1-1.9 2.2-1 4.6-2.5 5.4-3.4 1.7-2.1 1.4-2.1-2.4.1zM276 227.4c0 .3 1.5 1.5 3.3 2.8l3.2 2.3 100.5.5c91.6.5 100.9.7 104.8 2.2 2.3.9 4.2 1.5 4.2 1.3 0-.2-2.1-1.7-4.7-3.2l-4.8-2.8-101-.5c-79.7-.4-101.5-.8-103.2-1.8-1.3-.7-2.3-1.1-2.3-.8z"/></g><path fill="#666" d="M497.5 52c0 28.9.1 40.7.2 26.2.2-14.4.2-38 0-52.5-.1-14.4-.2-2.6-.2 26.3zm24.3 78.7c.7.3 1.6.2 1.9-.1.4-.3-.2-.6-1.3-.5-1.1 0-1.4.3-.6.6zm-134.1 40c55.7.2 146.9.2 202.5 0 55.7-.1 10.2-.2-101.2-.2s-156.9.1-101.3.2zm.1 10c55.8.2 146.7.2 202 0 55.4-.1 9.8-.2-101.3-.2s-156.4.1-100.7.2zm-127.5 19.8c0 2.7.2 3.8.4 2.2.2-1.5.2-3.7 0-5-.2-1.2-.4 0-.4 2.8zm24.5 29.2c.7.3 1.6.2 1.9-.1.4-.3-.2-.6-1.3-.5-1.1 0-1.4.3-.6.6zm212.4 83.5-.2 52.7-5.2.4-5.3.3 5.3.2c3.4.1 5.4-.2 5.7-1.1.3-.6.4-24.6.3-53.2l-.3-52-.3 52.7zm14.5 53.5c5 .4 5.2.5 5.6 3.6.4 3.1.5 3.1.3-.3l-.1-3.5-5.5-.1-5.5-.1 5.2.4zm-30.5 9.3c0 1.9.2 2.7.5 1.7.2-.9.2-2.5 0-3.5-.3-.9-.5-.1-.5 1.8zm-7.9 7.5c0 2.7.2 3.8.4 2.2.2-1.5.2-3.7 0-5-.2-1.2-.4 0-.4 2.8zm58 .5c0 3 .2 4.3.4 2.7.2-1.5.2-3.9 0-5.5-.2-1.5-.4-.2-.4 2.8zm-233-1.3c.9.2 2.3.2 3 0 .6-.3-.1-.5-1.8-.5-1.6 0-2.2.2-1.2.5zm406 0c.9.2 2.3.2 3 0 .6-.3-.1-.5-1.8-.5-1.6 0-2.2.2-1.2.5zm-413.5 1c.7.3 1.6.2 1.9-.1.4-.3-.2-.6-1.3-.5-1.1 0-1.4.3-.6.6zm460.3 13.9c0 1.1.3 1.4.6.6.3-.7.2-1.6-.1-1.9-.3-.4-.6.2-.5 1.3zm-496.5 2.7c.3 1 .9 1.5 1.2 1.2.3-.3 0-1.1-.7-1.8-1-.9-1.1-.8-.5.6zM701.2 492c0 1.4.2 1.9.5 1.2.2-.6.2-1.8 0-2.5-.3-.6-.5-.1-.5 1.3zm-23.2 7.4c0 .2.8 1 1.8 1.7 1.5 1.3 1.6 1.2.3-.4s-2.1-2.1-2.1-1.3zm147.1 3.2c0 1.1.3 1.4.6.6.3-.7.2-1.6-.1-1.9-.3-.4-.6.2-.5 1.3zm-647 4c0 1.1.3 1.4.6.6.3-.7.2-1.6-.1-1.9-.3-.4-.6.2-.5 1.3zm648.1 4.4c0 1.4.2 1.9.5 1.2.2-.6.2-1.8 0-2.5-.3-.6-.5-.1-.5 1.3zm-648.9 8c0 3 .2 4.3.4 2.7.2-1.5.2-3.9 0-5.5-.2-1.5-.4-.2-.4 2.8z"/><g fill="#633" stroke-width="0"><path d="M498 54.2c0 51.5.1 54.5 2 58.6 3.1 6.9 6.7 10.7 13.3 14.3l6.2 3.4 88 .5c48.4.3 88.1.7 88.3.8.1.1 2.3 2.1 4.7 4.3 11.7 10.8 7.8 28.7-7.4 33.8-2.5.8-57.3 1.1-206.5 1.1H283.5l-6 2.8c-10.7 5.1-15.6 12.6-16.3 24.8-.4 7.2-.1 8.9 2 13.6 3.1 6.7 7.9 11.6 14.4 14.9l4.9 2.4 101 .5c75.8.4 101.5.8 103.1 1.7 4.6 2.7 9.2 9 10.4 14.4.8 3.8 1 22.3.8 62.9l-.3 57.5-5.2.3c-5.1.3-5.3.4-5.3 3.3 0 2.4-.4 2.9-2.5 2.9s-2.5.5-2.5 3c0 2.8-.2 3-3.9 3h-4l-.3 4.7-.3 4.8-34.3.3c-34.3.2-34.3.2-33.7-1.8 1.6-5 1.9-5-51.4-5-52.5 0-62.2.7-78.4 5-10.6 2.8-20.7 7-21.4 8.8-.4.8-.1 2.3.6 3.4s1.1 2.1.9 2.1c-20.1 9.7-38.6 24.6-51.2 41.5-12.6 16.7-21.9 38.7-25.2 59.2-2.4 15.3-1.5 39.8 2 53.8 13.2 52.5 55.3 91.7 108 100.7 11.4 1.9 33.4 1.9 45.6 0 36.3-5.9 70.3-28.5 90.5-59.9l6.8-10.6 70.1.2 70.1.3 2 3.3c22.8 37.1 55.3 59.9 94.9 66.7 11.4 1.9 33.4 1.9 45.6 0 48.5-7.9 90.5-44.3 105.4-91.2 4.9-15.6 6-23.6 6-41.8 0-13.6-.5-19-2.2-27.2-8.5-39.3-32.9-72-68.1-91.1-4-2.2-6.8-4.3-6.2-4.6 1.5-1 1.4-5.1-.1-6.4-2.2-1.7-18.5-7.1-28.6-9.3-9.2-2.1-12.8-2.2-65-2.6-59.2-.5-59-.5-57.7 4.4l.5 2.3h-68v-10h-4c-3.8 0-4-.2-4-3 0-2.7-.3-3-3-3s-3-.3-3-3c0-2.9-.1-3-5-3h-4.9l-.3-62.8-.3-62.7-2.7-5.1c-3.1-5.9-8.4-10.8-14.7-13.8-4.6-2.1-5.6-2.1-105.1-2.6-99-.5-100.6-.5-104-2.5-7.7-4.6-11.7-14.8-9-23 1.5-4.4 6.1-10 10.4-12.3 2.9-1.6 17.7-1.7 209.1-2.2l206-.5 4.2-2.3c5.8-3 11.1-8.6 13.7-14.1 3.2-7 2.9-18.9-.6-25.7-3.1-5.9-8.3-10.8-14.7-13.8-4.5-2.1-5.8-2.1-91.6-2.6-85.4-.5-87.1-.5-90.5-2.5-1.9-1.2-4.8-4-6.5-6.4l-3-4.3-.3-53.9-.3-53.9H498v54.2zm218.8 342.5c27.5 6.4 48.6 17.7 66.7 35.8 24.7 24.6 37.9 56.9 37.8 92-.2 34.1-12.5 64.3-36.5 89.1-18.6 19.3-41.2 31.5-69.3 37.6-9.3 2-38.1 1.7-48.2-.5-38.8-8.3-70.4-31.9-89.5-66.6l-1.7-3.1H428l-2.1 4.2c-7.4 14.6-23.9 33.3-38.7 43.8-14.5 10.3-32.3 18-51.7 22.2-9.3 2-38.1 1.7-48.2-.5-54.4-11.7-94.7-54-102.9-108.1-1.9-12.1-1.3-33.2 1.1-44.6 12.2-56.2 58.1-97.4 114.5-102.9 4.7-.5 98.3-.8 208-.7l199.5.2 9.3 2.1z"/><path d="M299.8 438c-18.9 3-34 10.8-48.1 24.7-11.6 11.5-18.6 23.7-23 39.8-3 11.3-2.9 31.6.2 43 2.4 9 7.5 20.3 12.1 27 12.5 18.2 34.3 32.5 55.5 36.4 10.5 2 27.1 1.4 37.7-1.3 32.1-8.1 56.8-34.1 63.3-66.5 1.3-6.4 1.6-11.6 1.3-21.5-.4-11.4-.9-14.4-3.8-22.8-9.4-28.1-32.2-49.6-60.5-56.8-9.1-2.4-26.1-3.4-34.7-2zm32.3 7.5c15.5 4.1 27.6 11.3 39 23.3 15.2 16.1 21.9 32.8 21.9 55.2 0 17.5-4.3 31.4-14.2 45.7-15.2 22-38.8 34.3-65.8 34.3-23.4 0-39.8-6.9-56.6-23.5-10.3-10.2-15.9-19-19.9-30.9-17.9-53.6 23-108.4 79.1-106.1 5.6.2 13 1.1 16.5 2z"/><path d="M297.5 469.5c-2.5 2.4-2.5 2.7-2.5 19.5v17h-17c-16.8 0-17.1 0-19.5 2.5-2.4 2.3-2.5 3-2.5 15.2 0 18.4-1.3 17.3 21.1 17.3H295v17.3c0 23.1-1.1 21.7 17.5 21.7 11.7 0 14.6-.3 15.9-1.6 1.3-1.3 1.6-4.5 1.6-19.5V541h17.9c15 0 18.2-.3 19.5-1.6 1.3-1.3 1.6-4.2 1.6-15.9 0-18.6 1.4-17.5-21.7-17.5H330v-17.9c0-22.4 1.1-21.1-17.3-21.1-12.2 0-12.9.1-15.2 2.5zm19.3 12.7c1.7 2.9 2.8 5.6 2.6 6-.7 1.2-12.2 1-12.9-.2-.8-1.3 4.6-11 6.2-11 .6 0 2.5 2.3 4.1 5.2zm4.9 27.9c7 4.3 9.5 15.4 5 22-1.2 1.8-3.8 4.4-5.7 5.7-2.9 2-4.5 2.3-9.2 2-17.2-1.2-21.3-22.6-5.8-30.6 5.2-2.7 10.4-2.4 15.7.9zm-43.9 13.4c.2 3.2-.1 6.2-.5 6.6-1 1-11.3-4.9-11.3-6.4 0-1.4 9-6.8 10.5-6.3.6.1 1.1 2.9 1.3 6.1zm75.5-3.5c2.6 1.7 4.7 3.4 4.7 3.9 0 1.2-10.2 7.1-11.2 6.5-.4-.3-.8-3.4-.8-7 0-7.5.4-7.7 7.3-3.4zm-34.5 39.3c1.3 1.5-4 10.7-6.2 10.7-1.8 0-6.9-8.9-6.2-10.7.7-1.7 11-1.8 12.4 0z"/><path d="M307.3 512.5c-3.5 1.5-5.8 4.5-6.9 8.9-.5 2.1-.4 2.7.5 2.2.6-.4 1.1-1.6 1.1-2.8 0-2.4 5.5-7.8 8-7.8 1.1 0 2.2-.5 2.5-1 .9-1.4-1.4-1.2-5.2.5zM679.8 438c-18.9 3-34 10.8-48.1 24.7-11.6 11.5-18.6 23.7-23 39.8-3 11.3-2.9 31.6.2 43 2.4 9 7.5 20.3 12.1 27 12.5 18.2 34.3 32.5 55.5 36.4 10.5 2 27.1 1.4 37.7-1.3 32.1-8.1 56.8-34.1 63.3-66.5 1.3-6.4 1.6-11.6 1.3-21.5-.4-11.4-.9-14.4-3.8-22.8-9.4-28.1-32.2-49.6-60.5-56.8-9.1-2.4-26.1-3.4-34.7-2zm32.3 7.5c15.5 4.1 27.6 11.3 39 23.3 15.2 16.1 21.9 32.8 21.9 55.2 0 17.5-4.3 31.4-14.2 45.7-15.2 22-38.8 34.3-65.8 34.3-23.4 0-39.8-6.9-56.6-23.5-10.3-10.2-15.9-19-19.9-30.9-17.9-53.6 23-108.4 79.1-106.1 5.6.2 13 1.1 16.5 2z"/><path d="M681.1 469.9c-4.8 1.7-7.8 4.3-28.3 24.7-14.5 14.5-23.7 24.4-24.9 26.9-2.3 5-2.5 14.2-.3 19.3 5.1 12.3 20.3 17.9 32.2 11.8 6.2-3.2 48.4-45.5 50.6-50.8.9-2.1 1.6-6.4 1.6-9.6 0-10.8-6.5-19.8-16.8-22.8-5.8-1.8-7.6-1.7-14.1.5zm16.6 3.5c9.4 4.4 13.7 14.3 10.7 24.4-1.5 5.2-2.9 7-22.6 26.9-11.6 11.7-22.9 22.5-25.1 24-5.4 3.8-14.6 4.4-20.4 1.4-8.9-4.5-13.4-14.1-11.2-23.5 1.1-4.8 2.5-6.5 24.8-28.9 24.6-24.8 27-26.6 35.1-26.6 1.9-.1 5.8 1 8.7 2.3z"/><path d="M682.5 478c-1.1.4-3.3 2.2-4.9 3.9-4 4.2-4.8 12.9-1.7 17.9 4.2 6.7 12.5 9 19.7 5.6 14-6.6 8.9-28.5-6.5-28.3-2.5 0-5.5.4-6.6.9zm12.6 3.3c1.9 1.2 4.2 4 5.3 6.1 1.6 3.2 1.7 4.4.7 7.6-2.3 7.7-10.7 11.7-17.6 8.4-12.4-5.8-8.1-24.2 5.6-24.4 1.4 0 4.1 1 6 2.3z"/><path d="M683.9 483.5c-2.6 1.4-5.7 7-4.6 8.2.4.3 1.1-.7 1.7-2.2 1.2-3.3 3.7-5.4 6.3-5.5.9 0 1.7-.5 1.7-1 0-1.4-2-1.2-5.1.5zM644.6 517c-8.9 2.8-13.4 14.6-8.3 22 3.6 5.3 7.1 7.4 12.4 7.4 9.3-.1 15.3-5.9 15.3-14.9 0-5.5-2.8-10.8-6.9-12.9-3.7-2-9.1-2.7-12.5-1.6zm10.4 3.3c3.4 1.7 7 7.4 7 11.2 0 1.8-1 4.7-2.3 6.6-7.1 10.6-23 6.1-23-6.6 0-9.4 9.9-15.5 18.3-11.2z"/><path d="M642.6 524.5c-1.4 1.3-2.6 3.4-2.6 4.6 0 1.9.3 1.8 2.3-1.2 1.3-1.9 3.8-3.9 5.7-4.6l3.5-1.2h-3.1c-2-.1-4.1.8-5.8 2.4zm84.4-28.9c-4.4 1.9-48.4 45.5-51.1 50.6-7.9 15.3 3.1 34 20.1 34.2 10.4 0 11.6-.8 35.8-24.8 12.3-12.1 23.6-24.1 25-26.6 2.3-3.7 2.7-5.7 2.7-11.5-.1-10.5-5.1-18.3-14.2-22.2-4.3-1.7-13.9-1.6-18.3.3zm18.8 3.3c9.9 5.1 13.9 16.7 9.3 26.6-1.2 2.6-10.3 12.4-25.2 27.1-22.1 21.9-23.7 23.2-28.5 24.3-12.1 2.9-24-5.6-25.2-17.9-.9-9.3.6-11.3 26.1-36.8 19.5-19.5 24-23.5 27.8-24.7 5.2-1.7 10.6-1.2 15.7 1.4z"/><path d="M729 504.2c-5.5 3.8-7.5 7.3-7.5 13.2.1 9 5.9 14.6 15.2 14.6 8.9 0 14.3-5.8 14.3-15.2 0-4.7-.5-6.2-2.7-8.9-5.1-6-13.5-7.6-19.3-3.7zm12 1.4c7.3 2.9 10.1 11.4 6 18.1-4.8 7.9-15 8.2-20.9.7-4.6-5.9-1.3-16.6 5.9-19.1 4.5-1.5 4.3-1.6 9 .3z"/><path d="M729.5 510.5c-1.5 1.4-2.5 3.5-2.5 5.2l.1 2.8 1.3-3c1.5-3.5 4.3-6.1 7.1-6.8 1.5-.3 1.3-.5-.8-.6-1.7-.1-3.7.8-5.2 2.4zm-43.1 35.9c-4.1 4.1-4.4 4.7-4.4 9.8 0 16.6 21 21.8 28.1 7 5.2-10.7-1.7-21.2-14-21.2-5 0-5.7.3-9.7 4.4zm16.3-.7c4.9 2.3 7.8 8.7 6.4 13.9-2.3 8.2-9.9 11.9-17.4 8.6-9.5-4.2-10.3-16.8-1.4-22.2 3.9-2.4 7.8-2.5 12.4-.3z"/><path d="M691.9 548.5c-2.6 1.4-5.7 7-4.6 8.1.3.4 1.2-.9 2-2.9 1-2.3 2.5-3.8 4.6-4.5 1.7-.6 3.1-1.3 3.1-1.6 0-1-2.4-.6-5.1.9zm-224.6-37.2c-16 15.9-17.3 17.5-17.3 20.8 0 5 3.9 8.9 8.9 8.9 3.3 0 4.9-1.3 20.8-17.3 16.3-16.2 17.3-17.5 17.3-21 0-5.2-3.5-8.7-8.7-8.7-3.5 0-4.8 1-21 17.3zm67 0c-16 15.9-17.3 17.5-17.3 20.8 0 5 3.9 8.9 8.9 8.9 3.3 0 4.9-1.3 20.8-17.3 16.3-16.2 17.3-17.5 17.3-21 0-5.2-3.5-8.7-8.7-8.7-3.5 0-4.8 1-21 17.3z"/></g><path fill="#699" d="M507.3 4c0 2.5.2 3.5.4 2.2.2-1.2.2-3.2 0-4.5-.2-1.2-.4-.2-.4 2.3zM708 129.5c1.3 1.4 2.6 2.5 2.8 2.5.3 0-.5-1.1-1.8-2.5s-2.6-2.5-2.8-2.5c-.3 0 .5 1.1 1.8 2.5zm9.2 21.5c0 1.9.2 2.7.5 1.7.2-.9.2-2.5 0-3.5-.3-.9-.5-.1-.5 1.8zm-448.8 28.2-2.9 3.3 3.3-2.9c3-2.8 3.7-3.6 2.9-3.6-.2 0-1.6 1.5-3.3 3.2zM498 228.5c1.3 1.4 2.6 2.5 2.8 2.5.3 0-.5-1.1-1.8-2.5s-2.6-2.5-2.8-2.5c-.3 0 .5 1.1 1.8 2.5zm9.3 25c0 3.8.2 5.3.4 3.2.2-2 .2-5.2 0-7-.2-1.7-.4-.1-.4 3.8zm-24 119.2c.9.2 2.3.2 3 0 .6-.3-.1-.5-1.8-.5-1.6 0-2.2.2-1.2.5zm36 0c.9.2 2.3.2 3 0 .6-.3-.1-.5-1.8-.5-1.6 0-2.2.2-1.2.5zm-187.5 9c13.4.2 35 .2 48 0 13-.1 2.1-.2-24.3-.2-26.4 0-37.1.1-23.7.2zm292.9 0c13.3.2 35.3.2 49 0 13.6-.1 2.8-.2-24.2-.2-26.9 0-38.1.1-24.8.2zm-202.9 7c9.4.2 25 .2 34.5 0 9.4-.1 1.7-.3-17.3-.3s-26.7.2-17.2.3zm126.4 0c9.2.2 24.5.2 34 0 9.5-.1 2-.3-16.7-.3s-26.5.2-17.3.3zM778 419.4c0 .2.8 1 1.8 1.7 1.5 1.3 1.6 1.2.3-.4s-2.1-2.1-2.1-1.3zm-562 9.3-6.5 6.8 6.8-6.5c3.7-3.5 6.7-6.6 6.7-6.7 0-.8-1 .2-7 6.4zm578 6.7c0 .2.8 1 1.8 1.7 1.5 1.3 1.6 1.2.3-.4s-2.1-2.1-2.1-1.3zm-106.2 44.3c.6.2 1.8.2 2.5 0 .6-.3.1-.5-1.3-.5-1.4 0-1.9.2-1.2.5zm138.3 27.9c0 1.1.3 1.4.6.6.3-.7.2-1.6-.1-1.9-.3-.4-.6.2-.5 1.3zm-649 5c0 1.1.3 1.4.6.6.3-.7.2-1.6-.1-1.9-.3-.4-.6.2-.5 1.3zm650.1 7.9c0 1.6.2 2.2.5 1.2.2-.9.2-2.3 0-3-.3-.6-.5.1-.5 1.8z"/><path fill="#399" d="M507.5 55.5c0 26.4.1 37.1.2 23.7.2-13.4.2-35 0-48-.1-13-.2-2.1-.2 24.3zM497.4 113c.9 13.8 5.5 21.8 15.7 27.5l5.4 3 87.6.5 87.5.5 4.3 2.8c2.3 1.5 5 4.1 6 5.7 1 1.7 2.1 2.7 2.4 2.3 1.4-1.3.6-8.9-1.2-12.9-1.5-3.4-2.8-4.5-6.7-6-4.6-1.8-10.1-1.9-92-2.4-92.9-.5-87.3-.2-92.9-5.2-1.1-.9-3.7-3.1-5.7-4.8-4.3-3.6-7.5-8.4-9.4-14.3l-1.4-4.2.4 7.5zm217.7 49c-1 3.4-3.1 6.2-8.5 11.4C694.3 185.2 721 184 489.1 184c-227.2 0-212.3-.5-216 6.9-2.5 5-3.2 9-2.2 13.1.5 1.9.9 2.9 1 2.1.2-2.6 5.2-8.1 9.1-10.1 3.9-2 6.2-2 205.9-2 141.6 0 203.5-.3 207.1-1.1 6.7-1.4 13.8-6.3 17.7-12.2 4-6 5.5-11.2 5.1-18l-.3-5.2-1.4 4.5zm-454.6 49.3c-.8 3.2 1.9 14 4.6 18.3 2.4 4 6.7 7.7 12.3 10.7l4.1 2.2 101.2.5 101.1.5 4.4 3c2.3 1.7 5.3 4.9 6.5 7l2.3 4v-6c0-9.1-2.6-13.8-8.6-16.1-4.6-1.8-10.3-1.9-105.5-2.4-107.4-.5-100.8-.2-106.4-5.2-1.1-.9-3.9-3.3-6.2-5.3-2.3-2-5.3-5.9-6.7-8.7-2.3-4.7-2.6-4.8-3.1-2.5zm247 101.7c0 29.4.1 41.5.2 26.7.2-14.7.2-38.7 0-53.5-.1-14.7-.2-2.6-.2 26.8zm319.3 221c-3.1 52.9-40.2 100.7-91.5 117.8-15.3 5.2-24.9 6.6-43.3 6.6-17.6 0-25.7-1.2-41.5-6.1-29.7-9.3-59.7-33.3-74.7-60l-3-5.3H432l-2.8 4.6c-19.6 33.6-53.3 57.4-91.9 65.1-12.4 2.4-38.6 2.4-50.3-.1-28.8-6.2-50.1-17.6-70.1-37.5-23.4-23.5-34.9-48.1-39.5-84.6l-.8-6-.8 8.5c-1 10.3.5 29.5 3.2 40.6 9.6 40.1 35.5 73 71.8 91.3 31.9 16 69.7 19 103.5 8 30.7-10 59.2-32.3 74.4-58.4l3.8-6.5h139.2l4.8 7.7c20.7 32.6 54.3 55.1 92.5 61.9 12.9 2.3 34.5 2.3 47-.1 28.8-5.4 52.6-18 73-38.4 25-25.1 38.3-55.6 39.6-90.6.3-7.7.1-17.6-.3-22l-.9-8-.6 11.5z"/><path fill="#366" d="M177.2 532c0 1.4.2 1.9.5 1.2.2-.6.2-1.8 0-2.5-.3-.6-.5-.1-.5 1.3zm648.9 6.6c0 1.1.3 1.4.6.6.3-.7.2-1.6-.1-1.9-.3-.4-.6.2-.5 1.3zM209 611.4c0 .2.8 1 1.8 1.7 1.5 1.3 1.6 1.2.3-.4s-2.1-2.1-2.1-1.3zm380 0c0 .2.8 1 1.8 1.7 1.5 1.3 1.6 1.2.3-.4s-2.1-2.1-2.1-1.3zm-181.5 7.8-5 5.3 5.3-5c4.8-4.6 5.7-5.5 4.9-5.5-.1 0-2.5 2.4-5.2 5.2zm380 0-5 5.3 5.3-5c4.8-4.6 5.7-5.5 4.9-5.5-.1 0-2.5 2.4-5.2 5.2zM222 624.4c0 .2.8 1 1.8 1.7 1.5 1.3 1.6 1.2.3-.4s-2.1-2.1-2.1-1.3zm380 0c0 .2.8 1 1.8 1.7 1.5 1.3 1.6 1.2.3-.4s-2.1-2.1-2.1-1.3zm-309.2 33.3c.7.3 1.6.2 1.9-.1.4-.3-.2-.6-1.3-.5-1.1 0-1.4.3-.6.6zm380 0c.7.3 1.6.2 1.9-.1.4-.3-.2-.6-1.3-.5-1.1 0-1.4.3-.6.6zm-370.5 1c.9.2 2.3.2 3 0 .6-.3-.1-.5-1.8-.5-1.6 0-2.2.2-1.2.5zm17.5 0c.6.2 1.8.2 2.5 0 .6-.3.1-.5-1.3-.5-1.4 0-1.9.2-1.2.5zm362.5 0c.9.2 2.3.2 3 0 .6-.3-.1-.5-1.8-.5-1.6 0-2.2.2-1.2.5zm17.5 0c.6.2 1.8.2 2.5 0 .6-.3.1-.5-1.3-.5-1.4 0-1.9.2-1.2.5z"/><path fill="#663" d="M707.1 150.6c0 1.1.3 1.4.6.6.3-.7.2-1.6-.1-1.9-.3-.4-.6.2-.5 1.3zM497.3 254.5c0 3.8.2 5.3.4 3.2.2-2 .2-5.2 0-7-.2-1.7-.4-.1-.4 3.8zm-320.1 272c0 1.6.2 2.2.5 1.2.2-.9.2-2.3 0-3-.3-.6-.5.1-.5 1.8zm458.9 5.1c0 1.1.3 1.4.6.6.3-.7.2-1.6-.1-1.9-.3-.4-.6.2-.5 1.3zm190 4c0 1.1.3 1.4.6.6.3-.7.2-1.6-.1-1.9-.3-.4-.6.2-.5 1.3zm-359.3 51.1c19.3.2 51.1.2 70.5 0 19.3-.1 3.5-.2-35.3-.2s-54.6.1-35.2.2zm-158.1 72c1.8.2 5 .2 7 0 2.1-.2.7-.4-3.2-.4-3.8 0-5.5.2-3.8.4zm380 0c1.8.2 5 .2 7 0 2.1-.2.7-.4-3.2-.4-3.8 0-5.5.2-3.8.4z"/><path fill="#933" d="M405.3 394.7c53.8.2 141.6.2 195 0 53.5-.1 9.5-.2-97.8-.2-107.2 0-151 .1-97.2.2zM778 427.4c0 .2.8 1 1.8 1.7 1.5 1.3 1.6 1.2.3-.4s-2.1-2.1-2.1-1.3zm8 8c0 .2.8 1 1.8 1.7 1.5 1.3 1.6 1.2.3-.4s-2.1-2.1-2.1-1.3zm-50.2 69.3c.7.3 1.6.2 1.9-.1.4-.3-.2-.6-1.3-.5-1.1 0-1.4.3-.6.6zm-1 3c.7.3 1.6.2 1.9-.1.4-.3-.2-.6-1.3-.5-1.1 0-1.4.3-.6.6zM595 609.4c0 .2.8 1 1.8 1.7 1.5 1.3 1.6 1.2.3-.4s-2.1-2.1-2.1-1.3zm-284.7 1.3c1.5.2 3.9.2 5.5 0 1.5-.2.2-.4-2.8-.4s-4.3.2-2.7.4zm380 0c1.5.2 3.9.2 5.5 0 1.5-.2.2-.4-2.8-.4s-4.3.2-2.7.4zm-390.5 42c.7.3 1.6.2 1.9-.1.4-.3-.2-.6-1.3-.5-1.1 0-1.4.3-.6.6zm380 0c.7.3 1.6.2 1.9-.1.4-.3-.2-.6-1.3-.5-1.1 0-1.4.3-.6.6z"/><path fill="#963" d="M783 432.5c1.3 1.4 2.6 2.5 2.8 2.5.3 0-.5-1.1-1.8-2.5s-2.6-2.5-2.8-2.5c-.3 0 .5 1.1 1.8 2.5zm-480.2 5.2c.7.3 1.6.2 1.9-.1.4-.3-.2-.6-1.3-.5-1.1 0-1.4.3-.6.6zm380 0c.7.3 1.6.2 1.9-.1.4-.3-.2-.6-1.3-.5-1.1 0-1.4.3-.6.6zm-428.9 22-2.4 2.8 2.8-2.4c2.5-2.3 3.2-3.1 2.4-3.1-.2 0-1.4 1.2-2.8 2.7zm380 0-2.4 2.8 2.8-2.4c1.5-1.4 2.7-2.6 2.7-2.8 0-.8-.8-.1-3.1 2.4zM373 461.4c0 .2.8 1 1.8 1.7 1.5 1.3 1.6 1.2.3-.4s-2.1-2.1-2.1-1.3zm380 0c0 .2.8 1 1.8 1.7 1.5 1.3 1.6 1.2.3-.4s-2.1-2.1-2.1-1.3zm-505.1 4.3-2.4 2.8 2.8-2.4c2.5-2.3 3.2-3.1 2.4-3.1-.2 0-1.4 1.2-2.8 2.7zm380 0-2.4 2.8 2.8-2.4c1.5-1.4 2.7-2.6 2.7-2.8 0-.8-.8-.1-3.1 2.4zm74.6 11.3c1 1.1 2 2 2.3 2 .3 0-.3-.9-1.3-2s-2-2-2.3-2c-.3 0 .3.9 1.3 2zm-25.1 4.2-1.9 2.3 2.3-1.9c2.1-1.8 2.7-2.6 1.9-2.6-.2 0-1.2 1-2.3 2.2zm-4.2 10.8c0 1.4.2 1.9.5 1.2.2-.6.2-1.8 0-2.5-.3-.6-.5-.1-.5 1.3zm36 0c0 1.4.2 1.9.5 1.2.2-.6.2-1.8 0-2.5-.3-.6-.5-.1-.5 1.3zm26.1 4.7c.9.2 2.3.2 3 0 .6-.3-.1-.5-1.8-.5-1.6 0-2.2.2-1.2.5zm-10.4 10-2.4 2.8 2.8-2.4c1.5-1.4 2.7-2.6 2.7-2.8 0-.8-.8-.1-3.1 2.4zm21.1-1.3c0 .2.8 1 1.8 1.7 1.5 1.3 1.6 1.2.3-.4s-2.1-2.1-2.1-1.3zm-63 21.3-20.5 20.8 20.8-20.5c19.2-19 21.2-21 20.4-21-.1 0-9.4 9.3-20.7 20.7zm-371.7-19c.9.2 2.3.2 3 0 .6-.3-.1-.5-1.8-.5-1.6 0-2.2.2-1.2.5zM479.5 524c-8.2 8.2-14.7 15-14.5 15 .3 0 7.3-6.8 15.5-15 8.2-8.3 14.7-15 14.5-15-.3 0-7.3 6.7-15.5 15zm67 0c-8.2 8.2-14.7 15-14.5 15 .3 0 7.3-6.8 15.5-15 8.2-8.3 14.7-15 14.5-15-.3 0-7.3 6.7-15.5 15zm-363.4-11.4c0 1.1.3 1.4.6.6.3-.7.2-1.6-.1-1.9-.3-.4-.6.2-.5 1.3zm139.9-1.2c0 .2.8 1 1.8 1.7 1.5 1.3 1.6 1.2.3-.4s-2.1-2.1-2.1-1.3zm-96.9 3.2c0 1.1.3 1.4.6.6.3-.7.2-1.6-.1-1.9-.3-.4-.6.2-.5 1.3zm380 0c0 1.1.3 1.4.6.6.3-.7.2-1.6-.1-1.9-.3-.4-.6.2-.5 1.3zm145.1 2.4c0 1.9.2 2.7.5 1.7.2-.9.2-2.5 0-3.5-.3-.9-.5-.1-.5 1.8zm-447.3-.3c-1.3 1.6-1.2 1.7.4.4 1.6-1.3 2.1-2.1 1.3-2.1-.2 0-1 .8-1.7 1.7zm95.4 6.8c0 3.3.2 4.5.4 2.7.2-1.8.2-4.5 0-6s-.4 0-.4 3.3zm380 0c0 3.3.2 4.5.4 2.7.2-1.8.2-4.5 0-6s-.4 0-.4 3.3zm42 0c0 3.3.2 4.5.4 2.7.2-1.8.2-4.5 0-6s-.4 0-.4 3.3zm-183.4-2.8c-1.3 1.6-1.2 1.7.4.4.9-.7 1.7-1.5 1.7-1.7 0-.8-.8-.3-2.1 1.3zM296.2 524c0 1.9.2 2.7.5 1.7.2-.9.2-2.5 0-3.5-.3-.9-.5-.1-.5 1.8zm60.4.7c-.6 1.4-.5 1.5.5.6.7-.7 1-1.5.7-1.8-.3-.3-.9.2-1.2 1.2zm271.6 6.8c0 1.6.2 2.2.5 1.2.2-.9.2-2.3 0-3-.3-.6-.5.1-.5 1.8zm35.9.1c0 1.1.3 1.4.6.6.3-.7.2-1.6-.1-1.9-.3-.4-.6.2-.5 1.3zm-438 2c0 1.1.3 1.4.6.6.3-.7.2-1.6-.1-1.9-.3-.4-.6.2-.5 1.3zm380 0c0 1.1.3 1.4.6.6.3-.7.2-1.6-.1-1.9-.3-.4-.6.2-.5 1.3zm128.7-.9c.6.2 1.8.2 2.5 0 .6-.3.1-.5-1.3-.5-1.4 0-1.9.2-1.2.5zm-551.7 1.9c0 1.1.3 1.4.6.6.3-.7.2-1.6-.1-1.9-.3-.4-.6.2-.5 1.3zm453.9 6.8c0 .2.8 1 1.8 1.7 1.5 1.3 1.6 1.2.3-.4s-2.1-2.1-2.1-1.3zm58.8.3c.6.2 1.8.2 2.5 0 .6-.3.1-.5-1.3-.5-1.4 0-1.9.2-1.2.5zm-10.4 4.5-1.9 2.3 2.3-1.9c1.2-1.1 2.2-2.1 2.2-2.3 0-.8-.8-.2-2.6 1.9zm-4.2 10.3c0 1.6.2 2.2.5 1.2.2-.9.2-2.3 0-3-.3-.6-.5.1-.5 1.8zm27.9.1c0 1.1.3 1.4.6.6.3-.7.2-1.6-.1-1.9-.3-.4-.6.2-.5 1.3zm-402.4 2.1c-.3.5 1.6.7 4.1.5 7.3-.5 8.2-1 2-1.1-3.1 0-5.9.2-6.1.6zM682 571.5c1.3 1.4 2.6 2.5 2.8 2.5.3 0-.5-1.1-1.8-2.5s-2.6-2.5-2.8-2.5c-.3 0 .5 1.1 1.8 2.5zm13.8-1.8c.7.3 1.6.2 1.9-.1.4-.3-.2-.6-1.3-.5-1.1 0-1.4.3-.6.6zm-.5 8c.9.2 2.3.2 3 0 .6-.3-.1-.5-1.8-.5-1.6 0-2.2.2-1.2.5zM250.5 585c1 1.1 2 2 2.3 2 .3 0-.3-.9-1.3-2s-2-2-2.3-2c-.3 0 .3.9 1.3 2zm380 0c1 1.1 2 2 2.3 2 .3 0-.3-.9-1.3-2s-2-2-2.3-2c-.3 0 .3.9 1.3 2zm-410 30c2.1 2.2 4.1 4 4.4 4 .3 0-1.3-1.8-3.4-4-2.1-2.2-4.1-4-4.4-4-.3 0 1.3 1.8 3.4 4zm380.5.5c1.9 1.9 3.6 3.5 3.9 3.5.3 0-1-1.6-2.9-3.5s-3.6-3.5-3.9-3.5c-.3 0 1 1.6 2.9 3.5z"/><path fill="#C63" d="M704.8 395.7c.7.3 1.6.2 1.9-.1.4-.3-.2-.6-1.3-.5-1.1 0-1.4.3-.6.6zm-479.9 33c-1.3 1.6-1.2 1.7.4.4.9-.7 1.7-1.5 1.7-1.7 0-.8-.8-.3-2.1 1.3zm-8 8c-1.3 1.6-1.2 1.7.4.4 1.6-1.3 2.1-2.1 1.3-2.1-.2 0-1 .8-1.7 1.7zm240.9 105c.6.2 1.8.2 2.5 0 .6-.3.1-.5-1.3-.5-1.4 0-1.9.2-1.2.5zm67 0c.6.2 1.8.2 2.5 0 .6-.3.1-.5-1.3-.5-1.4 0-1.9.2-1.2.5zM253 587.4c0 .2.8 1 1.8 1.7 1.5 1.3 1.6 1.2.3-.4s-2.1-2.1-2.1-1.3zm380 0c0 .2.8 1 1.8 1.7 1.5 1.3 1.6 1.2.3-.4s-2.1-2.1-2.1-1.3zm-328.2 23.3c.7.3 1.6.2 1.9-.1.4-.3-.2-.6-1.3-.5-1.1 0-1.4.3-.6.6zm14 0c.6.2 1.8.2 2.5 0 .6-.3.1-.5-1.3-.5-1.4 0-1.9.2-1.2.5zm366 0c.7.3 1.6.2 1.9-.1.4-.3-.2-.6-1.3-.5-1.1 0-1.4.3-.6.6zm14 0c.6.2 1.8.2 2.5 0 .6-.3.1-.5-1.3-.5-1.4 0-1.9.2-1.2.5zm-300.9 9c-1.3 1.6-1.2 1.7.4.4 1.6-1.3 2.1-2.1 1.3-2.1-.2 0-1 .8-1.7 1.7zm380 0c-1.3 1.6-1.2 1.7.4.4 1.6-1.3 2.1-2.1 1.3-2.1-.2 0-1 .8-1.7 1.7zm-475.1 33c.6.2 1.8.2 2.5 0 .6-.3.1-.5-1.3-.5-1.4 0-1.9.2-1.2.5zm16 0c.6.2 1.8.2 2.5 0 .6-.3.1-.5-1.3-.5-1.4 0-1.9.2-1.2.5zm364 0c.6.2 1.8.2 2.5 0 .6-.3.1-.5-1.3-.5-1.4 0-1.9.2-1.2.5zm16 0c.6.2 1.8.2 2.5 0 .6-.3.1-.5-1.3-.5-1.4 0-1.9.2-1.2.5z"/><path fill="#C93" d="M300.8 395.7c.7.3 1.6.2 1.9-.1.4-.3-.2-.6-1.3-.5-1.1 0-1.4.3-.6.6zm69.2 62.7c0 .2.8 1 1.8 1.7 1.5 1.3 1.6 1.2.3-.4s-2.1-2.1-2.1-1.3zm380 0c0 .2.8 1 1.8 1.7 1.5 1.3 1.6 1.2.3-.4s-2.1-2.1-2.1-1.3zm-62.7 13.3c.9.2 2.3.2 3 0 .6-.3-.1-.5-1.8-.5-1.6 0-2.2.2-1.2.5zm-33.3 26-21.5 21.8 21.8-21.5c20.2-20 22.2-22 21.4-22-.1 0-9.9 9.8-21.7 21.7zm33.3-21c.9.2 2.5.2 3.5 0 .9-.3.1-.5-1.8-.5-1.9 0-2.7.2-1.7.5zm-199.5 17c.7.3 1.6.2 1.9-.1.4-.3-.2-.6-1.3-.5-1.1 0-1.4.3-.6.6zm67 0c.7.3 1.6.2 1.9-.1.4-.3-.2-.6-1.3-.5-1.1 0-1.4.3-.6.6zm-88.3 17.5-16 16.3 16.3-16c15-14.8 16.7-16.5 15.9-16.5-.1 0-7.4 7.3-16.2 16.2zm67 0-16 16.3 16.3-16c15-14.8 16.7-16.5 15.9-16.5-.1 0-7.4 7.3-16.2 16.2zm-36.4-9.6c0 1.1.3 1.4.6.6.3-.7.2-1.6-.1-1.9-.3-.4-.6.2-.5 1.3zm67 0c0 1.1.3 1.4.6.6.3-.7.2-1.6-.1-1.9-.3-.4-.6.2-.5 1.3zm184.9-.2c0 .2.8 1 1.8 1.7 1.5 1.3 1.6 1.2.3-.4s-2.1-2.1-2.1-1.3zm-61.2 6.3c.7.3 1.6.2 1.9-.1.4-.3-.2-.6-1.3-.5-1.1 0-1.4.3-.6.6zm-386.9 5c-1.3 1.6-1.2 1.7.4.4 1.6-1.3 2.1-2.1 1.3-2.1-.2 0-1 .8-1.7 1.7zm-117.7 3.8c0 1.6.2 2.2.5 1.2.2-.9.2-2.3 0-3-.3-.6-.5.1-.5 1.8zm215.9.1c0 1.1.3 1.4.6.6.3-.7.2-1.6-.1-1.9-.3-.4-.6.2-.5 1.3zm380 0c0 1.1.3 1.4.6.6.3-.7.2-1.6-.1-1.9-.3-.4-.6.2-.5 1.3zM183.2 531c0 1.4.2 1.9.5 1.2.2-.6.2-1.8 0-2.5-.3-.6-.5-.1-.5 1.3zm215.9-.4c0 1.1.3 1.4.6.6.3-.7.2-1.6-.1-1.9-.3-.4-.6.2-.5 1.3zm380 0c0 1.1.3 1.4.6.6.3-.7.2-1.6-.1-1.9-.3-.4-.6.2-.5 1.3zM706 544.4c0 .2.8 1 1.8 1.7 1.5 1.3 1.6 1.2.3-.4s-2.1-2.1-2.1-1.3zm-240.7 36.3c20.2.2 53.2.2 73.5 0 20.2-.1 3.6-.2-36.8-.2s-57 .1-36.7.2zm-156.5 72c1.7.2 4.7.2 6.5 0 1.7-.2.3-.4-3.3-.4-3.6 0-5 .2-3.2.4zm380 0c1.7.2 4.7.2 6.5 0 1.7-.2.3-.4-3.3-.4-3.6 0-5 .2-3.2.4z"/><g fill="#F93" stroke-width="0"><path d="M296.1 396.1c-44.2 5.2-84.4 35.5-102.1 77-4.1 9.8-3.7 9.9 1.3.4 6.3-12.1 13-20.9 23.6-31.5 15-15 32.2-25.5 52.4-32.1 20.6-6.7 4.7-6.2 223.2-6.6 134.9-.3 201.6-.1 209.2.7 31.9 3 59.1 15.6 81.7 37.7 10.1 9.9 17.2 19.3 23.5 31.3 5.8 10.9 6.5 11.2 1.9.8-17.7-39.9-49.5-66.1-92.3-76.1-9-2.1-9.2-2.1-212-2.3-111.7-.1-206.3.2-210.4.7z"/><path d="M310.8 436.7c1.2.2 3.2.2 4.5 0 1.2-.2.2-.4-2.3-.4s-3.5.2-2.2.4zm139.9 0c-1.4 1.3-.6 5.3 1.2 6.3 1.1.5 8.4 1 16.5 1 11.8 0 14.7-.3 16-1.6 1.9-1.9 2-3.6.4-5.2-1.3-1.3-32.9-1.8-34.1-.5zm50 0c-1.3 1.3-.7 6.1.9 6.7 2.4.9 59.7.7 61.2-.3.8-.5 1.2-2.1 1-3.7l-.3-2.9-31.1-.3c-17.1-.1-31.3.1-31.7.5zm190.1 0c1.2.2 3.2.2 4.5 0 1.2-.2.2-.4-2.3-.4s-3.5.2-2.2.4zm-239.2 16.6c-1.1.8-1.7 2.3-1.4 3.8l.3 2.4h113l.3-2.4c.8-5.1.9-5.1-56.8-5.1-42.5 0-54 .3-55.4 1.3zM704.2 492c0 1.4.2 1.9.5 1.2.2-.6.2-1.8 0-2.5-.3-.6-.5-.1-.5 1.3zm31.1 9.7c.9.2 2.3.2 3 0 .6-.3-.1-.5-1.8-.5-1.6 0-2.2.2-1.2.5zM480 524.5c-18.8 18.8-20.9 20-26.8 15-2.5-2.1-3.2-2.3-3.2-1 0 3.2 4.6 6.5 9.1 6.5 4 0 4.7-.5 19.1-14.8 15.3-15 19.2-19.5 18.6-21.2-.2-.6-7.7 6.4-16.8 15.5zm67 0c-18.8 18.8-20.9 20-26.8 15-2.5-2.1-3.2-2.3-3.2-1 0 3.2 4.6 6.5 9.1 6.5 4 0 4.7-.5 19.1-14.8 15.3-15 19.2-19.5 18.6-21.2-.2-.6-7.7 6.4-16.8 15.5zm273.1-11.9c0 1.1.3 1.4.6.6.3-.7.2-1.6-.1-1.9-.3-.4-.6.2-.5 1.3zm-63.9 4.9c0 1.6.2 2.2.5 1.2.2-.9.2-2.3 0-3-.3-.6-.5.1-.5 1.8zM183.3 524c0 3 .2 4.3.4 2.7.2-1.5.2-3.9 0-5.5-.2-1.5-.4-.2-.4 2.8zm42 0c0 2.5.2 3.5.4 2.2.2-1.2.2-3.2 0-4.5-.2-1.2-.4-.2-.4 2.3zm380 0c0 2.5.2 3.5.4 2.2.2-1.2.2-3.2 0-4.5-.2-1.2-.4-.2-.4 2.3zm-278.8 3.7c-6.1 11.2-20.6 11.4-27.4.3-1.7-2.8-2.1-3.1-2.1-1.4 0 2.6 3.7 8.1 7.1 10.7 7.2 5.2 18.5 2 22.7-6.5 2.8-5.7 2.6-8.3-.3-3.1zm306.7 3.8c0 1.6.2 2.2.5 1.2.2-.9.2-2.3 0-3-.3-.6-.5.1-.5 1.8zm-448.1 13.1c0 1.1.3 1.4.6.6.3-.7.2-1.6-.1-1.9-.3-.4-.6.2-.5 1.3zm632 4.6c-.7 2.4-3.3 8.5-5.7 13.7-23.7 50.4-76.7 80.5-132.4 75.3-26.7-2.6-45.9-8.9-64.2-21.2-12.8-8.5-28.4-25.6-34.9-38.3L578 575H426.3l-1.2 2.7c-2.5 5.5-10.2 16.2-16.7 23.1-17 18.4-41.1 30.9-68.9 35.8-15 2.6-39.8 2.4-53.3-.5-27.2-5.8-49.2-18-68.8-38.3-12.9-13.3-22-27.6-29.1-45.3l-2.3-6 .6 4.5c.4 2.5 1.8 7.9 3.1 12 15 46 53.9 79.6 101.2 87.5 15 2.5 38.9 1.7 52.3-1.8 20.2-5.3 36.4-13.7 52.2-26.8C406 613 412 606 420.1 593.5c3.2-5 6.6-10 7.4-11.3l1.6-2.2h72.8c56.7 0 73.1.3 74.2 1.2.9.7 3.4 4.5 5.8 8.5 18.5 31.8 51.8 54.6 89 60.8 15 2.5 38.9 1.7 52.3-1.8 20.2-5.3 36.5-13.7 52.2-26.9 18.4-15.5 31.5-34.9 39.1-58.2 3.1-9.6 5.2-18.6 4.2-18.6-.2 0-.9 1.9-1.6 4.2z"/><path d="M676.1 556.6c0 1.1.3 1.4.6.6.3-.7.2-1.6-.1-1.9-.3-.4-.6.2-.5 1.3zm36.1.4c0 1.4.2 1.9.5 1.2.2-.6.2-1.8 0-2.5-.3-.6-.5-.1-.5 1.3zM233 560.2c-.1 2 5.5 12.7 10.1 19.4 16.6 24 44.6 37.7 73.9 36.1 30.5-1.7 55.6-17.4 70.6-44.4 4.7-8.3 3.8-9.2-1.1-1.1-11.2 18.1-31.1 32.5-53.2 38.4-10.5 2.9-32.2 2.6-42.8-.4-23-6.6-43.5-22.5-53.8-42-2-3.7-3.7-6.4-3.7-6zm380 0c-.1 2 5.5 12.7 10.1 19.4 16.6 24 44.6 37.7 73.9 36.1 30.5-1.7 55.6-17.4 70.6-44.4 4.7-8.3 3.8-9.2-1.1-1.1-11.2 18.1-31.1 32.5-53.2 38.4-10.5 2.9-32.2 2.6-42.8-.4-23-6.6-43.5-22.5-53.8-42-2-3.7-3.7-6.4-3.7-6z"/><path d="M695.8 572.7c.6.2 1.8.2 2.5 0 .6-.3.1-.5-1.3-.5-1.4 0-1.9.2-1.2.5z"/></g><path fill="#FC3" d="M404.3 403.7c54.4.2 143 .2 197 0 54-.1 9.6-.2-98.8-.2-108.3 0-152.5.1-98.2.2zm-108.5 1c.6.2 1.8.2 2.5 0 .6-.3.1-.5-1.3-.5-1.4 0-1.9.2-1.2.5zm410.5 0c.9.2 2.3.2 3 0 .6-.3-.1-.5-1.8-.5-1.6 0-2.2.2-1.2.5zm-417.5 1c.7.3 1.6.2 1.9-.1.4-.3-.2-.6-1.3-.5-1.1 0-1.4.3-.6.6zm425 0c.7.3 1.6.2 1.9-.1.4-.3-.2-.6-1.3-.5-1.1 0-1.4.3-.6.6zm-430 1c.7.3 1.6.2 1.9-.1.4-.3-.2-.6-1.3-.5-1.1 0-1.4.3-.6.6zM771 429.4c0 .2.8 1 1.8 1.7 1.5 1.3 1.6 1.2.3-.4s-2.1-2.1-2.1-1.3zm5 4c0 .2.8 1 1.8 1.7 1.5 1.3 1.6 1.2.3-.4s-2.1-2.1-2.1-1.3zm-554.1 5.3-3.4 3.8 3.8-3.4c2-1.9 3.7-3.6 3.7-3.8 0-.8-.8 0-4.1 3.4zm245.5-3c10.6.3 16.5.8 17.5 1.6 1.4 1.1 1.4 1 .2-.6-1.2-1.5-3.1-1.7-17.5-1.5l-16.1.2 15.9.3zm49.4 0c8.3.2 22.1.2 30.5 0 8.3-.1 1.5-.3-15.3-.3s-23.6.2-15.2.3zm-67.7 3.9c0 1.1.3 1.4.6.6.3-.7.2-1.6-.1-1.9-.3-.4-.6.2-.5 1.3zm50.1.4c0 1.4.2 1.9.5 1.2.2-.6.2-1.8 0-2.5-.3-.6-.5-.1-.5 1.3zm65 0c0 1.4.2 1.9.5 1.2.2-.6.2-1.8 0-2.5-.3-.6-.5-.1-.5 1.3zm220.8 1.4c0 .2.8 1 1.8 1.7 1.5 1.3 1.6 1.2.3-.4s-2.1-2.1-2.1-1.3zm-334.3 1.7c.7.7 1.5 1 1.8.7.3-.3-.2-.9-1.2-1.2-1.4-.6-1.5-.5-.6.5zm-236.8 3.6-3.4 3.8 3.8-3.4c2-1.9 3.7-3.6 3.7-3.8 0-.8-.8 0-4.1 3.4zm579.1 3.7c0 .2.8 1 1.8 1.7 1.5 1.3 1.6 1.2.3-.4s-2.1-2.1-2.1-1.3zm-343 3.1c-.6.8-1 2.2-.7 3.2.4 1.4.5 1.4.6-.4 0-1.2.9-2.7 1.9-3.2.9-.6 1.2-1.1.6-1.1s-1.7.7-2.4 1.5zm112.3-.4c.9.5 1.8 2 1.8 3.2.1 1.8.2 1.8.6.4.5-2-1.3-4.7-3.1-4.7-.6 0-.3.5.7 1.1zM367 455.4c0 .2.8 1 1.8 1.7 1.5 1.3 1.6 1.2.3-.4s-2.1-2.1-2.1-1.3zm380 0c0 .2.8 1 1.8 1.7 1.5 1.3 1.6 1.2.3-.4s-2.1-2.1-2.1-1.3zm-496.5 6.8-4 4.3 4.3-4c2.3-2.1 4.2-4 4.2-4.2 0-.8-.9 0-4.5 3.9zm380 0-4 4.3 4.3-4c3.9-3.6 4.7-4.5 3.9-4.5-.2 0-2.1 1.9-4.2 4.2zm-151.3-1.5c15.3.2 40.3.2 55.6 0 15.2-.1 2.7-.2-27.8-.2s-43 .1-27.8.2zm220.2 42.5-1.9 2.3 2.3-1.9c1.2-1.1 2.2-2.1 2.2-2.3 0-.8-.8-.2-2.6 1.9zm2.1 19.8c-11.5 11.5-20.8 21-20.5 21 .3 0 10-9.5 21.5-21 11.5-11.6 20.8-21 20.5-21-.3 0-10 9.4-21.5 21zm-19 3.2-22 22.3 22.3-22c12.2-12.1 22.2-22.1 22.2-22.2 0-.8-2.1 1.3-22.5 21.9zm42.4-20.5c-1.3 1.6-1.2 1.7.4.4.9-.7 1.7-1.5 1.7-1.7 0-.8-.8-.3-2.1 1.3zM497.2 508c0 1.4.2 1.9.5 1.2.2-.6.2-1.8 0-2.5-.3-.6-.5-.1-.5 1.3zm67 0c0 1.4.2 1.9.5 1.2.2-.6.2-1.8 0-2.5-.3-.6-.5-.1-.5 1.3zm-240.7 5c1 1.1 2 2 2.3 2 .3 0-.3-.9-1.3-2s-2-2-2.3-2c-.3 0 .3.9 1.3 2zm336 7c1 1.1 2 2 2.3 2 .3 0-.3-.9-1.3-2s-2-2-2.3-2c-.3 0 .3.9 1.3 2zm87.4 8.7c-1.3 1.6-1.2 1.7.4.4 1.6-1.3 2.1-2.1 1.3-2.1-.2 0-1 .8-1.7 1.7zm-16.9 23-21.5 21.8 21.8-21.5c11.9-11.8 21.7-21.6 21.7-21.7 0-.8-2 1.2-22 21.4zm-280.8-15.2c0 1.6.2 2.2.5 1.2.2-.9.2-2.3 0-3-.3-.6-.5.1-.5 1.8zm67 0c0 1.6.2 2.2.5 1.2.2-.9.2-2.3 0-3-.3-.6-.5.1-.5 1.8zm143.2 6.7-1.9 2.3 2.3-1.9c1.2-1.1 2.2-2.1 2.2-2.3 0-.8-.8-.2-2.6 1.9zm25.5 2.5c-1.3 1.6-1.2 1.7.4.4.9-.7 1.7-1.5 1.7-1.7 0-.8-.8-.3-2.1 1.3zm-227.6 0c.9.2 2.5.2 3.5 0 .9-.3.1-.5-1.8-.5-1.9 0-2.7.2-1.7.5zm67 0c.9.2 2.5.2 3.5 0 .9-.3.1-.5-1.8-.5-1.9 0-2.7.2-1.7.5zm183.1 22.5-1.9 2.3 2.3-1.9c1.2-1.1 2.2-2.1 2.2-2.3 0-.8-.8-.2-2.6 1.9zM453 574.7c71.7.7 125.8.7 125.3 0-.2-.4-34.7-.6-76.6-.5-41.9.2-63.8.4-48.7.5zm-72.1 7c-1.3 1.6-1.2 1.7.4.4 1.6-1.3 2.1-2.1 1.3-2.1-.2 0-1 .8-1.7 1.7zm380 0c-1.3 1.6-1.2 1.7.4.4.9-.7 1.7-1.5 1.7-1.7 0-.8-.8-.3-2.1 1.3zm-516.9.7c0 .2.8 1 1.8 1.7 1.5 1.3 1.6 1.2.3-.4s-2.1-2.1-2.1-1.3zm380 0c0 .2.8 1 1.8 1.7 1.5 1.3 1.6 1.2.3-.4s-2.1-2.1-2.1-1.3zm-418 3c0 .2.8 1 1.8 1.7 1.5 1.3 1.6 1.2.3-.4s-2.1-2.1-2.1-1.3zm170.9 1.3c-1.3 1.6-1.2 1.7.4.4.9-.7 1.7-1.5 1.7-1.7 0-.8-.8-.3-2.1 1.3zm380 0c-1.3 1.6-1.2 1.7.4.4 1.6-1.3 2.1-2.1 1.3-2.1-.2 0-1 .8-1.7 1.7zm38 2c-1.3 1.6-1.2 1.7.4.4.9-.7 1.7-1.5 1.7-1.7 0-.8-.8-.3-2.1 1.3zm-545.9-.4c0 .2 1.5 1.6 3.3 3.3l3.2 2.9-2.9-3.3c-2.8-3-3.6-3.7-3.6-2.9zm380 0c0 .2 1.5 1.6 3.3 3.3l3.2 2.9-2.9-3.3c-2.8-3-3.6-3.7-3.6-2.9zm-419 2.1c0 .2.8 1 1.8 1.7 1.5 1.3 1.6 1.2.3-.4s-2.1-2.1-2.1-1.3zm574.5 9.8-7 7.3 7.3-7c6.7-6.4 7.7-7.5 6.9-7.5-.1 0-3.4 3.3-7.2 7.2zm-417.1-4-1.9 2.3 2.3-1.9c1.2-1.1 2.2-2.1 2.2-2.3 0-.8-.8-.2-2.6 1.9zm222.6-1.8c0 .2.8 1 1.8 1.7 1.5 1.3 1.6 1.2.3-.4s-2.1-2.1-2.1-1.3zm157.4 1.8-1.9 2.3 2.3-1.9c1.2-1.1 2.2-2.1 2.2-2.3 0-.8-.8-.2-2.6 1.9zm-338.5 3.5-2.4 2.8 2.8-2.4c2.5-2.3 3.2-3.1 2.4-3.1-.2 0-1.4 1.2-2.8 2.7zm189.6 4.3c1 1.1 2 2 2.3 2 .3 0-.3-.9-1.3-2s-2-2-2.3-2c-.3 0 .3.9 1.3 2zm-197.6 3.7-2.4 2.8 2.8-2.4c2.5-2.3 3.2-3.1 2.4-3.1-.2 0-1.4 1.2-2.8 2.7zM226 606.4c0 .2.8 1 1.8 1.7 1.5 1.3 1.6 1.2.3-.4s-2.1-2.1-2.1-1.3zm380 4c0 .2.8 1 1.8 1.7 1.5 1.3 1.6 1.2.3-.4s-2.1-2.1-2.1-1.3zm-311.2 4.3c.7.3 1.6.2 1.9-.1.4-.3-.2-.6-1.3-.5-1.1 0-1.4.3-.6.6zm380 0c.7.3 1.6.2 1.9-.1.4-.3-.2-.6-1.3-.5-1.1 0-1.4.3-.6.6zm-375 1c.6.2 1.8.2 2.5 0 .6-.3.1-.5-1.3-.5-1.4 0-1.9.2-1.2.5zm23 0c.6.2 1.8.2 2.5 0 .6-.3.1-.5-1.3-.5-1.4 0-1.9.2-1.2.5zm357 0c.6.2 1.8.2 2.5 0 .6-.3.1-.5-1.3-.5-1.4 0-1.9.2-1.2.5zm23 0c.6.2 1.8.2 2.5 0 .6-.3.1-.5-1.3-.5-1.4 0-1.9.2-1.2.5zm-43 20c.7.3 1.6.2 1.9-.1.4-.3-.2-.6-1.3-.5-1.1 0-1.4.3-.6.6zm-371 1c.7.3 1.6.2 1.9-.1.4-.3-.2-.6-1.3-.5-1.1 0-1.4.3-.6.6zm49 0c.7.3 1.6.2 1.9-.1.4-.3-.2-.6-1.3-.5-1.1 0-1.4.3-.6.6zm328 0c.7.3 1.6.2 1.9-.1.4-.3-.2-.6-1.3-.5-1.1 0-1.4.3-.6.6zm49 0c.7.3 1.6.2 1.9-.1.4-.3-.2-.6-1.3-.5-1.1 0-1.4.3-.6.6zm-420 1c.6.2 1.8.2 2.5 0 .6-.3.1-.5-1.3-.5-1.4 0-1.9.2-1.2.5zm35 0c.6.2 1.8.2 2.5 0 .6-.3.1-.5-1.3-.5-1.4 0-1.9.2-1.2.5zm342.5 0c.9.2 2.3.2 3 0 .6-.3-.1-.5-1.8-.5-1.6 0-2.2.2-1.2.5zm34.5 0c.6.2 1.8.2 2.5 0 .6-.3.1-.5-1.3-.5-1.4 0-1.9.2-1.2.5zm-398.5 1c2.6.2 6.8.2 9.5 0 2.6-.2.4-.3-4.8-.3s-7.4.1-4.7.3zm378.5 0c2.9.2 7.4.2 10 0 2.6-.2.2-.3-5.3-.3s-7.6.1-4.7.3z"/><g fill="#FC6" stroke-width="0"><path d="M298 404.5c-.8.2-4.9.9-9 1.5-18.8 3.1-41.1 12.6-56.7 24.5-7.8 5.9-20.2 18.4-26.5 27-7.5 9.9-17.1 29.6-19.4 39.5-1 4.7-1.9 13.6-2.2 23.5l-.4 16.1 3.6 10.8c13.6 40.5 43.6 70.6 83.9 84.1 13.5 4.5 26.4 6.5 42.2 6.5 37.8 0 69.1-11.9 92-34.8 7.3-7.2 18.5-22.6 20-27.1.6-2.1.7-2.1 76.5-2.1h75.8l3.2 5.7c13.8 24.5 36.9 42.9 64.6 51.6 16.1 5.1 24.4 6.2 45.9 6.2 18.3-.1 20.9-.3 30.6-2.7 26.5-6.7 46.6-18.3 65-37.4 19.3-20.2 32.3-46.5 33.6-68.4.6-10.1-.8-24.6-3.3-34.5-2.1-8.2-11-26.4-17.3-35.3-20.4-28.7-52.7-48.4-88.1-53.7-8.1-1.3-40.1-1.5-211-1.4-110.8.1-202.2.3-203 .4zm186.8 31.7c.7.7 1.2 2.1 1.2 3.3 0 4.1-1.6 4.5-18.7 4.5-15 0-16.3-.1-17.3-1.9-1.4-2.7-1.3-3.7.6-5.5 1.3-1.3 4.3-1.6 17.3-1.6 10.9 0 16.1.4 16.9 1.2zm78.4.5c2.1 1.9 2.3 4.4.6 6.1-1.7 1.7-61.9 1.7-63.6 0-1.7-1.7-1.5-3.8.5-6 1.5-1.7 3.8-1.8 31.1-1.8 26.1 0 29.8.2 31.4 1.7zM333.7 439c29.8 7 54.8 31.1 63.3 61.2 2.8 9.6 3.7 27.2 2 37.5-1.8 11.3-7.5 28-12.5 36.4-11.6 19.9-31.6 34.6-54.2 40-12 2.9-33.2 2.3-43.8-1.1-20.3-6.5-37.4-19.5-48-36.5-5.8-9.3-8.9-17-12.2-30.3-3.4-14-3.6-31.4-.4-43.7 4.7-18 16-35.7 29.9-46.6 21.8-17.4 48.3-23.3 75.9-16.9zm380 0c29.8 7 54.8 31.1 63.3 61.2 2.8 9.6 3.7 27.2 2 37.5-1.8 11.3-7.5 28-12.5 36.4-11.6 19.9-31.6 34.6-54.2 40-12 2.9-33.2 2.3-43.8-1.1-20.3-6.5-37.4-19.5-48-36.5-5.8-9.3-8.9-17-12.2-30.3-3.4-14-3.6-31.4-.4-43.7 4.7-18 16-35.7 29.9-46.6 21.8-17.4 48.3-23.3 75.9-16.9zm-149.9 14.2c1.7 1.7 1.5 4.4-.4 6.2-1.4 1.4-7.9 1.6-56.4 1.6s-55-.2-56.4-1.6c-1.9-1.8-2.1-4.5-.4-6.2 1.7-1.7 111.9-1.7 113.6 0zm-68.1 43.3c1.8 2 2.3 3.8 2.3 8.3v5.6l-17.8 17.8c-19 19-19.9 19.6-26.1 16.3-3.7-1.9-5.5-6.4-4.8-12.2.5-4.5 1.1-5.3 18-22.1l17.6-17.5 4.3.6c2.9.4 5 1.4 6.5 3.2zm67 0c1.8 2 2.3 3.8 2.3 8.3v5.6l-17.8 17.8c-19 19-19.9 19.6-26.1 16.3-3.7-1.9-5.5-6.4-4.8-12.2.5-4.5 1.1-5.3 18-22.1l17.6-17.5 4.3.6c2.9.4 5 1.4 6.5 3.2z"/><path d="M309.5 482.3c-1.4 2.4-2.5 4.9-2.5 5.5 0 1.3 10.1 1.7 11.3.6.8-.8-4.3-10.4-5.4-10.4-.5 0-2 2-3.4 4.3zm-3.3 27.4c-3.6 1.7-7.5 6.4-8.6 10-1 3.2 2.5 10.5 6.3 13.2 7.3 5.3 17.6 2.9 22-5 2.9-5.1 2.3-10-1.6-14.2-5.2-5.5-12-7-18.1-4zm7.5 2c.2.6-.9 1.4-2.6 1.8-3.8.8-7.8 4.8-8.6 8.6-.6 2.8-1.9 3.7-2.9 2.1s1.4-7.8 3.8-10.1c2.3-2.1 7.1-4.1 9-3.7.6.1 1.1.7 1.3 1.3zm-42.4 8.9c-2.4 1.4-4.3 2.9-4.3 3.3 0 1.2 9.6 6.2 10.4 5.4.3-.3.6-3 .6-6 0-6.2-.6-6.4-6.7-2.7zm74.7 2.7c0 3 .3 5.7.6 6 .7.7 10.4-4.4 10.4-5.5 0-.8-8.5-5.8-9.9-5.8-.7 0-1.1 2.2-1.1 5.3zm-39 36.6c0 1.3 5.1 10.1 5.8 10.1 1.1 0 6.2-9.7 5.5-10.4-1-.9-11.3-.7-11.3.3zm373.5-86c-2.6 1.2-12.2 10.1-26.6 24.7-19.7 19.9-22.9 23.5-23.9 27.3-3.1 11.6 3.9 22.5 16.3 25.5 1.7.4 5.1.1 8-.8 4.8-1.4 7.1-3.5 28.9-25.3 19.5-19.6 23.8-24.5 24.7-27.8 1.5-5.6 1.3-8.4-.8-13-4.9-10.8-16.4-15.3-26.6-10.6zm17.3 4.8c4.2 3 7.5 10.5 6.7 15.1-1 6-4 10.1-9.2 12.4-14.3 6.3-27.8-8.7-20.1-22.3 4.2-7.5 15.8-10.2 22.6-5.2zM658 518.2c12.8 8.8 6.9 28.8-8.4 28.8-3.1 0-6.5-.7-8.6-1.9-4-2.1-8-8.9-8-13.6 0-4.7 4-11.5 8-13.6 5-2.7 12.8-2.5 17 .3zm71.6-19.7c-3 1-9.7 7.1-26.4 23.7-12.3 12.3-23.3 24.1-24.4 26.2-2.8 5.5-2.2 13.9 1.4 19.4 2.9 4.3 11.3 9.2 15.7 9.2 8 0 9.8-1.4 33.8-25.3 12.8-12.7 23.9-24.5 24.8-26.3 3.6-7.6.9-18.8-5.7-23.7-6.3-4.7-12.3-5.7-19.2-3.2zm15.4 5.3c1.4 1.1 3.6 3.4 4.8 5.3 3.1 4.4 2.8 12.9-.6 17.6-4.6 6.4-15.8 8.2-22 3.6-9.6-7.1-8.3-22.5 2.2-27.5 4.9-2.2 11.7-1.8 15.6 1zm-40 39.4c5.5 3.8 7.4 7.2 7.4 13.1 0 9.9-6.2 16.1-16.1 16.1-5.9 0-9.3-1.9-13.1-7.5-3-4.4-2.8-12.9.6-17.6 4.5-6.3 14.9-8.3 21.2-4.1z"/></g><path fill="#966" d="M298.6 444.5c-31.3 6-55.6 28.8-64.2 60.5-2.4 9.1-2.4 28.1 0 37.5 7.9 30.5 31.5 53.3 62 60 10.7 2.4 29.1 1.7 39.1-1.5 26.3-8.4 46.1-28.2 54.5-54.5 3.1-9.9 3.9-28.4 1.5-38.9-3.7-16.8-10.5-28.9-22.9-41.1-11.2-10.9-21.7-16.9-37.2-21-8.7-2.3-23.4-2.7-32.8-1zm29.2 24.1c2.1 1.5 2.2 2 2.2 19.5V506h17.3c23.1 0 21.7-1.1 21.7 17.3 0 7.8-.5 14.9-1 15.7-.7 1.2-4.4 1.6-19.2 2l-18.3.5-.5 18.3c-.4 14.8-.8 18.5-2 19.2-.8.5-7.9 1-15.7 1-18.4 0-17.3 1.4-17.3-21.7V541h-17.9c-22.4 0-21.1 1.1-21.1-17.4 0-18.3-.9-17.6 21.7-17.6H295v-17.2c0-22.7-.7-21.8 17.5-21.8 10.2 0 13.5.3 15.3 1.6zm350.8-24.1c-31.3 6-55.6 28.8-64.2 60.5-2.4 9.1-2.4 28.1 0 37.5 7.9 30.5 31.5 53.3 62 60 10.7 2.4 29.1 1.7 39.1-1.5 26.3-8.4 46.1-28.2 54.5-54.5 3.1-9.9 3.9-28.4 1.5-38.9-3.7-16.8-10.5-28.9-22.9-41.1-11.2-10.9-21.7-16.9-37.2-21-8.7-2.3-23.4-2.7-32.8-1zm16.8 24.9c6.7 2 11 5.7 14.1 12.1 3.4 6.9 3.7 15.3.7 21.1-2.9 5.6-46.7 48.9-51.4 50.9-4.2 1.7-14.3 2-18.2.5-4-1.5-10.7-8.1-12.7-12.5-2.3-5-2.4-14.2-.4-19.3 1.8-4.2 45-48.3 50-50.9 6.2-3.3 11.3-3.9 17.9-1.9zm50 26c5.2 2.2 10.2 7.2 12.6 12.8 1.8 4.3 2.1 6.4 1.7 11.5-.4 3.5-1.1 7.3-1.8 8.5-2 4-46.2 47.9-50.4 50.1-8.1 4.2-20.6 2.3-27.1-4.1-7-7.1-9.1-19.4-4.7-27.7 2.9-5.4 46.8-49 51.3-50.9 4.4-1.9 14.1-2 18.4-.2z"/><path fill="#9CC" d="M696 482.4c0 .2.8 1 1.8 1.7 1.5 1.3 1.6 1.2.3-.4s-2.1-2.1-2.1-1.3z"/><path fill="#9FF" d="M682.8 481.6c-5.4 2.9-7.4 10.9-4.1 16.5 1.8 3.1 6.7 5.9 10.3 5.9 5.5 0 12-6.5 12-12.1 0-3.3-3.8-9-7-10.6-3.3-1.7-7.9-1.6-11.2.3zm7.2 1.1c0 .5-1.5 1.5-3.3 2.3-1.8.8-3.9 2.9-4.7 4.7-1.4 3.1-4 4.5-4 2.3 0-2.3 2.9-7.9 4.7-8.9 2.1-1.2 7.3-1.5 7.3-.4z"/><path fill="#C33" d="M748.2 517.5c0 1.6.2 2.2.5 1.2.2-.9.2-2.3 0-3-.3-.6-.5.1-.5 1.8zm-20.7 8.5c1 1.1 2 2 2.3 2 .3 0-.3-.9-1.3-2s-2-2-2.3-2c-.3 0 .3.9 1.3 2zm8.3 3.7c.7.3 1.6.2 1.9-.1.4-.3-.2-.6-1.3-.5-1.1 0-1.4.3-.6.6z"/><path fill="#F33" d="M730.2 507c-4 2.5-6.6 8.1-5.7 12.6.3 2 2 4.5 4.1 6.3 2.8 2.5 4.4 3.1 8 3.1 3.9 0 5.1-.5 8-3.4 2.9-2.9 3.4-4.1 3.4-8 0-10.2-9.3-15.7-17.8-10.6zm6.8 1.1c0 .5-1.4 1.5-3.1 2.1-2.1.7-3.6 2.2-4.5 4.4-1.5 3.6-3.4 4.5-3.4 1.6.1-2.7 2.5-6.3 5.1-7.8 2.9-1.6 5.9-1.8 5.9-.3z"/><path fill="#393" d="M656 521.4c0 .2.8 1 1.8 1.7 1.5 1.3 1.6 1.2.3-.4s-2.1-2.1-2.1-1.3zm5.1 10.2c0 1.1.3 1.4.6.6.3-.7.2-1.6-.1-1.9-.3-.4-.6.2-.5 1.3zm-4.2 9.1c-1.3 1.6-1.2 1.7.4.4.9-.7 1.7-1.5 1.7-1.7 0-.8-.8-.3-2.1 1.3z"/><path fill="#3C3" d="M645 520.3c-4.2 1.5-8 6.8-8 11.2 0 7.6 8.5 13.8 15.6 11.5 10.8-3.6 11.3-18.2.8-22.6-3.9-1.6-3.9-1.6-8.4-.1zm6 2.2c0 .9-.9 1.5-2.2 1.5-3 .1-5.5 2-6.7 5.3-1.2 3-3.1 3.6-3.1.9.1-2.7 2.5-6.3 5.1-7.8 3.3-1.8 6.9-1.8 6.9.1z"/><path fill="#FF9" d="M688.4 548.4c-2.8 2.8-3.4 4.2-3.4 7.5 0 2.3.7 5.5 1.5 7 1.5 3.1 6.9 6.1 10.7 6.1 5.3 0 11.8-6.6 11.8-12 0-3.6-2.8-8.5-5.9-10.3-1.6-.9-4.8-1.7-7.1-1.7-3.4 0-4.8.6-7.6 3.4zm9.3-.8c.2.5-1.2 1.6-3.1 2.2-2.6 1-3.8 2.2-4.8 4.7-.6 1.9-1.5 3.5-1.9 3.5-1.7 0-1.9-2.1-.5-5.5 2-4.7 9.2-8.1 10.3-4.9z"/></svg>