<svg width="873" height="276" viewBox="0 0 873 276" fill="none" xmlns="http://www.w3.org/2000/svg">
<path d="M105.562 129.774L113.394 92.4479L154.562 83.1149" stroke="#283035" stroke-width="8" stroke-linecap="round" stroke-linejoin="round"/>
<path d="M233.7 3.85291H571.478C576.017 3.85291 580.369 5.65589 583.579 8.8652C586.788 12.0745 588.591 16.4273 588.591 20.9659V243.853H216.591V20.9649C216.591 16.4271 218.394 12.0752 221.602 8.86624C224.811 5.65726 229.162 3.85397 233.7 3.85291V3.85291Z" fill="#D2DCE6"/>
<path d="M233.7 3.85291H571.478C576.017 3.85291 580.369 5.65589 583.579 8.8652C586.788 12.0745 588.591 16.4273 588.591 20.9659V243.853H216.591V20.9649C216.591 16.4271 218.394 12.0752 221.602 8.86624C224.811 5.65726 229.162 3.85397 233.7 3.85291V3.85291Z" stroke="#283035" stroke-width="6" stroke-linecap="round" stroke-linejoin="round"/>
<path d="M560.591 216.136V32.1359L244.591 32.1359V216.136L560.591 216.136Z" fill="#FF5C5C"/>
<path opacity="0.3" d="M428.007 186.781H480.007" stroke="white" stroke-width="6" stroke-linecap="round" stroke-linejoin="round"/>
<g opacity="0.3">
<path d="M554.78 129.585C555.781 129.522 556.774 129.798 557.599 130.368C558.423 130.938 559.032 131.77 559.327 132.728V121.273C558.229 120.952 557.091 120.786 555.947 120.781H554.78C552.264 120.781 551.006 122.039 551.007 124.554V125.9C551.007 128.327 552.264 129.585 554.78 129.585Z" fill="white"/>
<path d="M559.327 184.494C559.027 185.447 558.416 186.273 557.592 186.838C556.767 187.404 555.778 187.677 554.78 187.614C552.264 187.614 551.006 188.871 551.007 191.386V192.734C551.007 195.249 552.265 196.506 554.78 196.507H555.947C557.091 196.502 558.229 196.336 559.327 196.015V184.494Z" fill="white"/>
</g>
<path d="M560.591 216.136V32.1359L244.591 32.1359V216.136L560.591 216.136Z" stroke="#283035" stroke-width="6" stroke-linecap="round" stroke-linejoin="round"/>
<path d="M175.543 244H629.643C630.704 244 631.721 244.421 632.471 245.172C633.222 245.922 633.643 246.939 633.643 248V252.791C633.643 258.095 631.536 263.182 627.785 266.933C624.034 270.684 618.947 272.791 613.643 272.791H191.543C186.239 272.791 181.152 270.684 177.401 266.933C173.65 263.182 171.543 258.095 171.543 252.791V248C171.543 246.939 171.964 245.922 172.715 245.172C173.465 244.421 174.482 244 175.543 244Z" fill="#E5E5E5"/>
<path d="M613.639 263.787H191.539C186.743 263.784 182.108 262.056 178.48 258.919C174.853 255.782 172.474 251.445 171.778 246.7C171.627 247.117 171.548 247.557 171.543 248V252.791C171.543 258.095 173.65 263.182 177.401 266.933C181.152 270.684 186.239 272.791 191.543 272.791H613.643C618.947 272.791 624.034 270.684 627.785 266.933C631.536 263.182 633.643 258.095 633.643 252.791V248C633.638 247.557 633.559 247.117 633.408 246.7C632.712 251.447 630.332 255.785 626.703 258.922C623.073 262.059 618.436 263.786 613.639 263.787V263.787Z" fill="#CFD1D0"/>
<path d="M175.543 244H629.643C630.704 244 631.721 244.421 632.471 245.172C633.222 245.922 633.643 246.939 633.643 248V252.791C633.643 258.095 631.536 263.182 627.785 266.933C624.034 270.684 618.947 272.791 613.643 272.791H191.543C186.239 272.791 181.152 270.684 177.401 266.933C173.65 263.182 171.543 258.095 171.543 252.791V248C171.543 246.939 171.964 245.922 172.715 245.172C173.465 244.421 174.482 244 175.543 244Z" stroke="#283035" stroke-width="6" stroke-linecap="round" stroke-linejoin="round"/>
<path d="M360.591 243.853H444.591C444.591 245.975 443.748 248.01 442.248 249.51C440.748 251.01 438.713 251.853 436.591 251.853H368.591C366.469 251.853 364.434 251.01 362.934 249.51C361.434 248.01 360.591 245.975 360.591 243.853Z" fill="#686B6D"/>
<path d="M360.591 243.853H444.591C444.591 245.975 443.748 248.01 442.248 249.51C440.748 251.01 438.713 251.853 436.591 251.853H368.591C366.469 251.853 364.434 251.01 362.934 249.51C361.434 248.01 360.591 245.975 360.591 243.853Z" stroke="#283035" stroke-width="4" stroke-linecap="round" stroke-linejoin="round"/>
<path d="M401.804 25.6189C406.222 25.6189 409.804 22.0372 409.804 17.6189C409.804 13.2006 406.222 9.6189 401.804 9.6189C397.386 9.6189 393.804 13.2006 393.804 17.6189C393.804 22.0372 397.386 25.6189 401.804 25.6189Z" fill="#686B6D"/>
<path d="M401.804 25.6189C406.222 25.6189 409.804 22.0372 409.804 17.6189C409.804 13.2006 406.222 9.6189 401.804 9.6189C397.386 9.6189 393.804 13.2006 393.804 17.6189C393.804 22.0372 397.386 25.6189 401.804 25.6189Z" stroke="#283035" stroke-width="4" stroke-linecap="round" stroke-linejoin="round"/>
<path d="M76.455 272.787H125.555C127.258 272.787 128.903 272.166 130.181 271.04C131.46 269.915 132.284 268.362 132.499 266.672L145.614 163.772H56.4L69.516 266.672C69.7313 268.361 70.5545 269.913 71.8318 271.039C73.109 272.164 74.7526 272.786 76.455 272.787V272.787Z" fill="#EAD57D"/>
<path d="M70.048 163.774L80.454 258.808C80.6681 260.763 81.5963 262.57 83.0606 263.883C84.525 265.196 86.4224 265.922 88.389 265.922H132.6L132.505 266.672C132.29 268.362 131.466 269.915 130.187 271.04C128.909 272.166 127.264 272.787 125.561 272.787H76.461C74.7579 272.787 73.1133 272.166 71.8353 271.04C70.5572 269.914 69.7334 268.361 69.518 266.672L56.4 163.774H70.048Z" fill="#E5C66E"/>
<path d="M76.455 272.787H125.555C127.258 272.787 128.903 272.166 130.181 271.04C131.46 269.915 132.284 268.362 132.499 266.672L145.614 163.772H56.4L69.516 266.672C69.7313 268.361 70.5545 269.913 71.8318 271.039C73.109 272.164 74.7526 272.786 76.455 272.787V272.787Z" stroke="#283035" stroke-width="6" stroke-linecap="round" stroke-linejoin="round"/>
<path d="M142.25 243.164L148.593 193.397H53.42L59.763 243.164H142.25Z" fill="#5CBF84"/>
<path d="M142.25 243.164L148.593 193.397H53.42L59.763 243.164H142.25Z" fill="#4FB277"/>
<path d="M141.856 237.414L147.175 193.397H67.367L72.267 233.921C72.3836 234.884 72.8489 235.771 73.575 236.415C74.3011 237.059 75.2377 237.414 76.208 237.414H141.856Z" fill="#5CBF84"/>
<path d="M142.25 243.164L148.593 193.397H53.42L59.763 243.164H142.25Z" stroke="#283035" stroke-width="6" stroke-linecap="round" stroke-linejoin="round"/>
<path d="M50.668 163.773H151.346C157.421 163.773 162.346 158.848 162.346 152.773C162.346 146.698 157.421 141.773 151.346 141.773H50.668C44.5929 141.773 39.668 146.698 39.668 152.773C39.668 158.848 44.5929 163.773 50.668 163.773Z" fill="#5CBF84"/>
<path d="M50.668 163.773H151.346C157.421 163.773 162.346 158.848 162.346 152.773C162.346 146.698 157.421 141.773 151.346 141.773H50.668C44.5929 141.773 39.668 146.698 39.668 152.773C39.668 158.848 44.5929 163.773 50.668 163.773Z" fill="#4FB277"/>
<path d="M62.044 159.023H153.72C158.483 159.023 162.345 155.161 162.345 150.398C162.345 145.635 158.483 141.773 153.72 141.773H62.044C57.2806 141.773 53.419 145.635 53.419 150.398C53.419 155.161 57.2806 159.023 62.044 159.023Z" fill="#5CBF84"/>
<path d="M50.668 163.773H151.346C157.421 163.773 162.346 158.848 162.346 152.773C162.346 146.698 157.421 141.773 151.346 141.773H50.668C44.5929 141.773 39.668 146.698 39.668 152.773C39.668 158.848 44.5929 163.773 50.668 163.773Z" stroke="#283035" stroke-width="6" stroke-linecap="round" stroke-linejoin="round"/>
<path d="M61.006 141.774H141.006L139.423 129.774H62.59L61.006 141.774Z" fill="#5CBF84"/>
<path d="M62.59 129.774H86.062L80.506 141.774H61.006L62.59 129.774Z" fill="#54AF79"/>
<path d="M61.006 141.774H141.006L139.423 129.774H62.59L61.006 141.774Z" stroke="#283035" stroke-width="6" stroke-linecap="round" stroke-linejoin="round"/>
<path d="M644.134 272.886C644.179 265.227 647.253 257.897 652.685 252.497C658.116 247.097 665.464 244.066 673.123 244.066C680.783 244.066 688.131 247.097 693.562 252.497C698.994 257.897 702.068 265.227 702.113 272.886H644.134Z" fill="#E5E5E5"/>
<path d="M673.124 263.729C677.27 263.769 681.376 262.92 685.166 261.241C688.957 259.562 692.344 257.09 695.1 253.993C692.381 250.826 689.009 248.284 685.216 246.542C681.423 244.799 677.298 243.897 673.123 243.897C668.949 243.897 664.824 244.799 661.031 246.542C657.238 248.284 653.866 250.826 651.147 253.993C653.903 257.09 657.29 259.562 661.081 261.241C664.872 262.92 668.978 263.769 673.124 263.729V263.729Z" fill="#CFD1D0"/>
<path d="M644.134 272.886C644.179 265.227 647.253 257.897 652.685 252.497C658.116 247.097 665.464 244.066 673.123 244.066C680.783 244.066 688.131 247.097 693.562 252.497C698.994 257.897 702.068 265.227 702.113 272.886H644.134Z" stroke="#283035" stroke-width="6" stroke-linecap="round" stroke-linejoin="round"/>
<g style="mix-blend-mode:multiply" opacity="0.14">
<path d="M449.999 67.7809H298.015C293.592 67.7809 290.007 71.3662 290.007 75.7889V193.773C290.007 198.196 293.592 201.781 298.015 201.781H449.999C454.422 201.781 458.007 198.196 458.007 193.773V75.7889C458.007 71.3662 454.422 67.7809 449.999 67.7809Z" fill="black"/>
</g>
<path d="M442.166 60.7809H290.182C285.759 60.7809 282.174 64.3662 282.174 68.7889V186.773C282.174 191.196 285.759 194.781 290.182 194.781H442.166C446.589 194.781 450.174 191.196 450.174 186.773V68.7889C450.174 64.3662 446.589 60.7809 442.166 60.7809Z" fill="#353F49"/>
<path d="M442.166 60.7809H290.182C285.759 60.7809 282.174 64.3662 282.174 68.7889V186.773C282.174 191.196 285.759 194.781 290.182 194.781H442.166C446.589 194.781 450.174 191.196 450.174 186.773V68.7889C450.174 64.3662 446.589 60.7809 442.166 60.7809Z" stroke="#283035" stroke-width="4" stroke-linecap="round" stroke-linejoin="round"/>
<path d="M290.181 60.7809H442.166C444.29 60.7809 446.327 61.6246 447.828 63.1264C449.33 64.6282 450.174 66.665 450.174 68.7889V80.7809H282.174V68.7889C282.174 66.6652 283.018 64.6285 284.519 63.1267C286.021 61.6249 288.057 60.7811 290.181 60.7809Z" fill="#EAEEEF"/>
<path d="M290.181 60.7809H442.166C444.29 60.7809 446.327 61.6246 447.828 63.1264C449.33 64.6282 450.174 66.665 450.174 68.7889V80.7809H282.174V68.7889C282.174 66.6652 283.018 64.6285 284.519 63.1267C286.021 61.6249 288.057 60.7811 290.181 60.7809Z" stroke="#283035" stroke-width="4" stroke-linecap="round" stroke-linejoin="round"/>
<path opacity="0.35" d="M296.507 73.9059C298.233 73.9059 299.632 72.5068 299.632 70.7809C299.632 69.055 298.233 67.6559 296.507 67.6559C294.781 67.6559 293.382 69.055 293.382 70.7809C293.382 72.5068 294.781 73.9059 296.507 73.9059Z" fill="#283035"/>
<path opacity="0.35" d="M306.34 73.9059C308.066 73.9059 309.465 72.5068 309.465 70.7809C309.465 69.055 308.066 67.6559 306.34 67.6559C304.614 67.6559 303.215 69.055 303.215 70.7809C303.215 72.5068 304.614 73.9059 306.34 73.9059Z" fill="#283035"/>
<path opacity="0.35" d="M315.674 73.9059C317.4 73.9059 318.799 72.5068 318.799 70.7809C318.799 69.055 317.4 67.6559 315.674 67.6559C313.948 67.6559 312.549 69.055 312.549 70.7809C312.549 72.5068 313.948 73.9059 315.674 73.9059Z" fill="#283035"/>
<path d="M290.007 87.7809H301.007" stroke="#46BB86" stroke-width="3" stroke-miterlimit="10"/>
<path d="M305.007 87.7809H335.007" stroke="#46BB86" stroke-width="3" stroke-miterlimit="10"/>
<path d="M290.007 95.7809H335.007" stroke="#389ABE" stroke-width="3" stroke-miterlimit="10"/>
<path d="M299.007 103.781H321.007" stroke="#E5C689" stroke-width="3" stroke-miterlimit="10"/>
<path d="M325.007 103.781H349.007" stroke="#F2F3F4" stroke-width="3" stroke-miterlimit="10"/>
<path d="M311.007 111.781H357.007" stroke="#F2F3F4" stroke-width="3" stroke-miterlimit="10"/>
<path d="M311.007 119.781H345.007" stroke="#FFA49F" stroke-width="3" stroke-miterlimit="10"/>
<path d="M299.007 127.781H349.007" stroke="#F2F3F4" stroke-width="3" stroke-miterlimit="10"/>
<path d="M290.007 134.781H317.007" stroke="#389ABE" stroke-width="3" stroke-miterlimit="10"/>
<g opacity="0.3">
<path d="M522.643 173.522C522.643 169.57 521.115 166.786 518.061 165.079C515.905 163.911 515.007 163.012 515.007 160.947V157.447C515.007 155.022 516.085 154.483 517.971 153.225C521.115 151.878 522.643 149.004 522.643 144.692V137.056C522.643 130.948 524.888 126.456 528.122 124.57C530.541 122.845 533.417 121.876 536.386 121.785H537.554C540.069 121.785 541.326 123.043 541.327 125.558V126.9C541.327 129.325 540.069 130.583 537.554 130.583C534.054 130.583 532.344 133.098 532.344 138.218V147.65C532.433 149.94 531.862 152.207 530.7 154.182C529.538 156.156 527.832 157.756 525.787 158.789L524.978 159.058V159.238C525.9 159.51 526.756 159.969 527.493 160.586C529.739 161.932 532.344 165.077 532.344 170.556V181.066C532.344 186.096 534.051 188.612 537.554 188.612C540.069 188.612 541.326 189.869 541.327 192.384V193.732C541.327 196.247 540.069 197.504 537.554 197.505H536.386C533.417 197.414 530.541 196.445 528.122 194.72C524.888 192.834 522.643 188.253 522.643 182.234V173.522Z" fill="white"/>
</g>
<path d="M71.923 221.683L73.923 219.737C81.5125 225.889 90.9854 229.246 100.755 229.246C110.525 229.246 119.998 225.889 127.587 219.737L130.087 222.181" stroke="#283035" stroke-width="3" stroke-linecap="round" stroke-linejoin="round"/>
<path d="M94.624 211.6C94.624 210.465 94.173 209.376 93.3701 208.573C92.5673 207.77 91.4784 207.319 90.343 207.319V207.319C89.2076 207.319 88.1187 207.77 87.3159 208.573C86.513 209.376 86.062 210.465 86.062 211.6V215.521" stroke="#283035" stroke-width="3" stroke-linecap="round" stroke-linejoin="round"/>
<path d="M107.388 211.6C107.388 210.465 107.839 209.376 108.642 208.573C109.445 207.77 110.534 207.319 111.669 207.319V207.319C112.804 207.319 113.893 207.77 114.696 208.573C115.499 209.376 115.95 210.465 115.95 211.6V215.521" stroke="#283035" stroke-width="3" stroke-linecap="round" stroke-linejoin="round"/>
<path d="M803.641 142.886H725.841C720.815 142.886 716.741 146.96 716.741 151.986V263.786C716.741 268.812 720.815 272.886 725.841 272.886H803.641C808.667 272.886 812.741 268.812 812.741 263.786V151.986C812.741 146.96 808.667 142.886 803.641 142.886Z" fill="#E5E5E5"/>
<path d="M803.641 142.886H802.488C802.654 143.574 802.739 144.279 802.741 144.986V256.786C802.741 259.199 801.782 261.514 800.076 263.221C798.369 264.927 796.054 265.886 793.641 265.886H717C717.472 267.878 718.603 269.652 720.208 270.922C721.813 272.193 723.8 272.884 725.847 272.886H803.647C806.06 272.886 808.375 271.927 810.082 270.221C811.788 268.514 812.747 266.199 812.747 263.786V151.986C812.747 150.79 812.511 149.607 812.054 148.502C811.596 147.398 810.925 146.394 810.08 145.549C809.234 144.704 808.23 144.034 807.125 143.577C806.02 143.12 804.837 142.885 803.641 142.886V142.886Z" fill="#CFD1D0"/>
<path d="M803.641 142.886H725.841C720.815 142.886 716.741 146.96 716.741 151.986V263.786C716.741 268.812 720.815 272.886 725.841 272.886H803.641C808.667 272.886 812.741 268.812 812.741 263.786V151.986C812.741 146.96 808.667 142.886 803.641 142.886Z" stroke="#283035" stroke-width="6" stroke-linecap="round" stroke-linejoin="round"/>
<path d="M780.741 135.342H772.741V132.342C772.741 130.22 771.898 128.185 770.398 126.685C768.898 125.185 766.863 124.342 764.741 124.342C762.619 124.342 760.584 125.185 759.084 126.685C757.584 128.185 756.741 130.22 756.741 132.342V135.342H748.741C746.619 135.342 744.584 136.185 743.084 137.685C741.584 139.185 740.741 141.22 740.741 143.342C740.741 145.464 741.584 147.499 743.084 148.999C744.584 150.499 746.619 151.342 748.741 151.342H780.741C782.863 151.342 784.898 150.499 786.398 148.999C787.898 147.499 788.741 145.464 788.741 143.342C788.741 141.22 787.898 139.185 786.398 137.685C784.898 136.185 782.863 135.342 780.741 135.342Z" fill="#F7B66F"/>
<path d="M784.458 136.262C784.783 137.447 784.829 138.692 784.593 139.898C784.357 141.104 783.846 142.239 783.099 143.215C782.352 144.191 781.389 144.981 780.286 145.524C779.183 146.066 777.97 146.346 776.741 146.342H744.741C743.446 146.343 742.17 146.027 741.024 145.423C741.481 147.12 742.485 148.62 743.88 149.69C745.275 150.76 746.983 151.34 748.741 151.342H780.741C782.528 151.34 784.264 150.74 785.67 149.637C787.076 148.534 788.073 146.992 788.501 145.257C788.929 143.521 788.763 141.693 788.03 140.062C787.297 138.432 786.04 137.094 784.458 136.262Z" fill="#EDA762"/>
<path d="M768.741 127.342V130.342H772.479C772.2 129.262 771.698 128.252 771.006 127.377C770.313 126.502 769.445 125.782 768.458 125.262C768.644 125.94 768.739 126.639 768.741 127.342V127.342Z" fill="#EDA762"/>
<path d="M780.741 135.342H772.741V132.342C772.741 130.22 771.898 128.185 770.398 126.685C768.898 125.185 766.863 124.342 764.741 124.342C762.619 124.342 760.584 125.185 759.084 126.685C757.584 128.185 756.741 130.22 756.741 132.342V135.342H748.741C746.619 135.342 744.584 136.185 743.084 137.685C741.584 139.185 740.741 141.22 740.741 143.342C740.741 145.464 741.584 147.499 743.084 148.999C744.584 150.499 746.619 151.342 748.741 151.342H780.741C782.863 151.342 784.898 150.499 786.398 148.999C787.898 147.499 788.741 145.464 788.741 143.342C788.741 141.22 787.898 139.185 786.398 137.685C784.898 136.185 782.863 135.342 780.741 135.342Z" stroke="#283035" stroke-width="6" stroke-linecap="round" stroke-linejoin="round"/>
<path d="M764.741 180.342C769.343 180.342 773.074 176.611 773.074 172.009C773.074 167.407 769.343 163.676 764.741 163.676C760.139 163.676 756.408 167.407 756.408 172.009C756.408 176.611 760.139 180.342 764.741 180.342Z" fill="#8EAFBF"/>
<path d="M764.741 180.342C769.343 180.342 773.074 176.611 773.074 172.009C773.074 167.407 769.343 163.676 764.741 163.676C760.139 163.676 756.408 167.407 756.408 172.009C756.408 176.611 760.139 180.342 764.741 180.342Z" stroke="#283035" stroke-width="6" stroke-linecap="round" stroke-linejoin="round"/>
<path d="M732.964 197.676H752.964" stroke="#283035" stroke-width="6" stroke-linecap="round" stroke-linejoin="round"/>
<path d="M732.964 224.842H752.964" stroke="#283035" stroke-width="6" stroke-linecap="round" stroke-linejoin="round"/>
<path d="M732.964 252.009H752.964" stroke="#283035" stroke-width="6" stroke-linecap="round" stroke-linejoin="round"/>
<path d="M766.178 196.606L771.392 203.541L786.996 191.811" stroke="#8BAFC1" stroke-width="4" stroke-linecap="round" stroke-linejoin="round"/>
<path d="M766.178 223.772L771.392 230.708L786.996 218.977" stroke="#8BAFC1" stroke-width="4" stroke-linecap="round" stroke-linejoin="round"/>
<path d="M822.644 198.532L812.74 199.91L821.561 263.299L831.465 261.921L822.644 198.532Z" fill="#3BBC88"/>
<path d="M822.644 198.532L812.74 199.91L821.561 263.299L831.465 261.921L822.644 198.532Z" stroke="#283035" stroke-width="4" stroke-linecap="round" stroke-linejoin="round"/>
<path d="M831.467 261.92L821.562 263.298L827.893 272.513L831.467 261.92Z" fill="#E5E5E5"/>
<path d="M831.467 261.92L821.562 263.298L827.893 272.513L831.467 261.92Z" stroke="#283035" stroke-width="4" stroke-linecap="round" stroke-linejoin="round"/>
<path d="M818.986 188.463L813.046 189.291L814.426 199.191L820.366 198.363L818.986 188.463Z" fill="#E5E5E5"/>
<path d="M818.986 188.463L813.046 189.291L814.426 199.191L820.366 198.363L818.986 188.463Z" stroke="#283035" stroke-width="3.99829" stroke-linecap="round" stroke-linejoin="round"/>
<path d="M831.6 223.545C830.48 221.7 829.686 219.676 829.253 217.561C828.148 212.128 830.876 209.022 829.401 205.93C828.813 204.697 828.528 203.013 824.111 202.375" stroke="#283035" stroke-width="4" stroke-linecap="round" stroke-linejoin="round"/>
<path d="M843.75 272.886H869.5" stroke="#283035" stroke-width="6" stroke-linecap="round" stroke-linejoin="round"/>
<path d="M157.333 272.886H832.5" stroke="#283035" stroke-width="6" stroke-linecap="round" stroke-linejoin="round"/>
<path d="M37.75 272.886H145.616" stroke="#283035" stroke-width="6" stroke-linecap="round" stroke-linejoin="round"/>
<path d="M3.33301 272.886H26.5" stroke="#283035" stroke-width="6" stroke-linecap="round" stroke-linejoin="round"/>
</svg>
